<?xml version="1.0" encoding="UTF-8"?>
<svg xmlns="http://www.w3.org/2000/svg" xmlns:xlink="http://www.w3.org/1999/xlink" width="288px" height="252px" viewBox="0 0 288 252" version="1.1" id="Fig:dens">
  <metadata xmlns:gridsvg="http://www.stat.auckland.ac.nz/~paul/R/gridSVG/">
    <gridsvg:generator name="gridSVG" version="1.7-5" time="2023-04-05 13:29:31"/>
    <gridsvg:argument name="name" value="./results/QCDir.Raw/dens.svg"/>
    <gridsvg:argument name="exportCoords" value="none"/>
    <gridsvg:argument name="exportMappings" value="none"/>
    <gridsvg:argument name="exportJS" value="none"/>
    <gridsvg:argument name="res" value="72"/>
    <gridsvg:argument name="prefix" value="Fig:dens"/>
    <gridsvg:argument name="addClasses" value="FALSE"/>
    <gridsvg:argument name="indent" value="TRUE"/>
    <gridsvg:argument name="htmlWrapper" value="FALSE"/>
    <gridsvg:argument name="usePaths" value="none"/>
    <gridsvg:argument name="uniqueNames" value="TRUE"/>
    <gridsvg:separator name="id.sep" value="."/>
    <gridsvg:separator name="gPath.sep" value="::"/>
    <gridsvg:separator name="vpPath.sep" value="::"/>
  </metadata>
  <g transform="translate(0, 252) scale(1, -1)">
    <g id="Fig:densgridSVG" fill="none" stroke="rgb(0,0,0)" stroke-dasharray="none" stroke-width="0.75" font-size="12" font-family="Helvetica, Arial, FreeSans, Liberation Sans, Nimbus Sans L, sans-serif" opacity="1" stroke-linecap="round" stroke-linejoin="round" stroke-miterlimit="10" stroke-opacity="1" fill-opacity="0" font-weight="normal" font-style="normal">
      <g id="Fig:densplot_01.background.1">
        <rect id="Fig:densplot_01.background.1.1" x="0" y="0" width="288" height="252" transform="" fill="none" stroke="none" stroke-opacity="0" fill-opacity="0"/>
      </g>
      <g id="Fig:densplot_01.toplevel.vp.1" font-size="12">
        <g id="Fig:densplot_01.ylab.vp.1">
          <g id="Fig:densplot_01.ylab.1">
            <g id="Fig:densplot_01.ylab.1.1" transform="translate(16.31, 141.09)" stroke-width="0.1">
              <g id="Fig:densplot_01.ylab.1.1.scale" transform="scale(1, -1)">
                <text x="0" y="0" id="Fig:densplot_01.ylab.1.1.text" transform="rotate(-90)" text-anchor="middle" opacity="1" stroke="rgb(0,0,0)" fill="rgb(0,0,0)" stroke-opacity="1" fill-opacity="1" font-size="12" font-weight="normal" font-style="normal">
                  <tspan id="Fig:densplot_01.ylab.1.1.tspan.1" dy="4.31" x="0">Density</tspan>
                </text>
              </g>
            </g>
          </g>
        </g>
        <g id="Fig:densplot_01.figure.vp.1"/>
        <defs>
          <clipPath id="Fig:densplot_01.panel.1.1.vp.1.clipPath">
            <rect x="50.8" y="48.19" width="225.2" height="185.81" fill="none" stroke="none"/>
          </clipPath>
        </defs>
        <g id="Fig:densplot_01.panel.1.1.vp.1" clip-path="url(#Fig:densplot_01.panel.1.1.vp.1.clipPath)"/>
        <g id="Fig:densplot_01.strip.1.1.off.vp.1"/>
        <g id="Fig:densplot_01.strip.left.1.1.off.vp.1">
          <g id="Fig:densplot_01.ticks.left.panel.1.1.1">
            <polyline id="Fig:densplot_01.ticks.left.panel.1.1.1.1" points="50.8,59.6 45.13,59.6" stroke="rgb(0,0,0)" opacity="1" stroke-dasharray="none" stroke-width="0.75" stroke-opacity="1" fill="none"/>
            <polyline id="Fig:densplot_01.ticks.left.panel.1.1.1.2" points="50.8,109.99 45.13,109.99" stroke="rgb(0,0,0)" opacity="1" stroke-dasharray="none" stroke-width="0.75" stroke-opacity="1" fill="none"/>
            <polyline id="Fig:densplot_01.ticks.left.panel.1.1.1.3" points="50.8,160.38 45.13,160.38" stroke="rgb(0,0,0)" opacity="1" stroke-dasharray="none" stroke-width="0.75" stroke-opacity="1" fill="none"/>
            <polyline id="Fig:densplot_01.ticks.left.panel.1.1.1.4" points="50.8,210.77 45.13,210.77" stroke="rgb(0,0,0)" opacity="1" stroke-dasharray="none" stroke-width="0.75" stroke-opacity="1" fill="none"/>
          </g>
          <g id="Fig:densplot_01.ticklabels.left.panel.1.1.1">
            <g id="Fig:densplot_01.ticklabels.left.panel.1.1.1.1" transform="translate(39.47, 59.6)" stroke-width="0.1">
              <g id="Fig:densplot_01.ticklabels.left.panel.1.1.1.1.scale" transform="scale(1, -1)">
                <text x="0" y="0" id="Fig:densplot_01.ticklabels.left.panel.1.1.1.1.text" transform="rotate(-90)" text-anchor="middle" stroke="rgb(0,0,0)" opacity="1" fill="rgb(0,0,0)" stroke-opacity="1" fill-opacity="1" font-size="9.6" font-weight="normal" font-style="normal">
                  <tspan id="Fig:densplot_01.ticklabels.left.panel.1.1.1.1.tspan.1" dy="0" x="0">0.00</tspan>
                </text>
              </g>
            </g>
            <g id="Fig:densplot_01.ticklabels.left.panel.1.1.1.2" transform="translate(39.47, 109.99)" stroke-width="0.1">
              <g id="Fig:densplot_01.ticklabels.left.panel.1.1.1.2.scale" transform="scale(1, -1)">
                <text x="0" y="0" id="Fig:densplot_01.ticklabels.left.panel.1.1.1.2.text" transform="rotate(-90)" text-anchor="middle" stroke="rgb(0,0,0)" opacity="1" fill="rgb(0,0,0)" stroke-opacity="1" fill-opacity="1" font-size="9.6" font-weight="normal" font-style="normal">
                  <tspan id="Fig:densplot_01.ticklabels.left.panel.1.1.1.2.tspan.1" dy="0" x="0">0.02</tspan>
                </text>
              </g>
            </g>
            <g id="Fig:densplot_01.ticklabels.left.panel.1.1.1.3" transform="translate(39.47, 160.38)" stroke-width="0.1">
              <g id="Fig:densplot_01.ticklabels.left.panel.1.1.1.3.scale" transform="scale(1, -1)">
                <text x="0" y="0" id="Fig:densplot_01.ticklabels.left.panel.1.1.1.3.text" transform="rotate(-90)" text-anchor="middle" stroke="rgb(0,0,0)" opacity="1" fill="rgb(0,0,0)" stroke-opacity="1" fill-opacity="1" font-size="9.6" font-weight="normal" font-style="normal">
                  <tspan id="Fig:densplot_01.ticklabels.left.panel.1.1.1.3.tspan.1" dy="0" x="0">0.04</tspan>
                </text>
              </g>
            </g>
            <g id="Fig:densplot_01.ticklabels.left.panel.1.1.1.4" transform="translate(39.47, 210.77)" stroke-width="0.1">
              <g id="Fig:densplot_01.ticklabels.left.panel.1.1.1.4.scale" transform="scale(1, -1)">
                <text x="0" y="0" id="Fig:densplot_01.ticklabels.left.panel.1.1.1.4.text" transform="rotate(-90)" text-anchor="middle" stroke="rgb(0,0,0)" opacity="1" fill="rgb(0,0,0)" stroke-opacity="1" fill-opacity="1" font-size="9.6" font-weight="normal" font-style="normal">
                  <tspan id="Fig:densplot_01.ticklabels.left.panel.1.1.1.4.tspan.1" dy="0" x="0">0.06</tspan>
                </text>
              </g>
            </g>
          </g>
        </g>
        <g id="Fig:densplot_01.panel.1.1.off.vp.1">
          <g id="Fig:densplot_01.ticks.bottom.panel.1.1.1">
            <polyline id="Fig:densplot_01.ticks.bottom.panel.1.1.1.1" points="63.89,48.19 63.89,42.52" stroke="rgb(0,0,0)" opacity="1" stroke-dasharray="none" stroke-width="0.75" stroke-opacity="1" fill="none"/>
            <polyline id="Fig:densplot_01.ticks.bottom.panel.1.1.1.2" points="134.72,48.19 134.72,42.52" stroke="rgb(0,0,0)" opacity="1" stroke-dasharray="none" stroke-width="0.75" stroke-opacity="1" fill="none"/>
            <polyline id="Fig:densplot_01.ticks.bottom.panel.1.1.1.3" points="205.54,48.19 205.54,42.52" stroke="rgb(0,0,0)" opacity="1" stroke-dasharray="none" stroke-width="0.75" stroke-opacity="1" fill="none"/>
          </g>
          <g id="Fig:densplot_01.ticklabels.bottom.panel.1.1.1">
            <g id="Fig:densplot_01.ticklabels.bottom.panel.1.1.1.1" transform="translate(63.89, 36.85)" stroke-width="0.1">
              <g id="Fig:densplot_01.ticklabels.bottom.panel.1.1.1.1.scale" transform="scale(1, -1)">
                <text x="0" y="0" id="Fig:densplot_01.ticklabels.bottom.panel.1.1.1.1.text" text-anchor="middle" stroke="rgb(0,0,0)" opacity="1" fill="rgb(0,0,0)" stroke-opacity="1" fill-opacity="1" font-size="9.6" font-weight="normal" font-style="normal">
                  <tspan id="Fig:densplot_01.ticklabels.bottom.panel.1.1.1.1.tspan.1" dy="7.18" x="0">0</tspan>
                </text>
              </g>
            </g>
            <g id="Fig:densplot_01.ticklabels.bottom.panel.1.1.1.2" transform="translate(134.72, 36.85)" stroke-width="0.1">
              <g id="Fig:densplot_01.ticklabels.bottom.panel.1.1.1.2.scale" transform="scale(1, -1)">
                <text x="0" y="0" id="Fig:densplot_01.ticklabels.bottom.panel.1.1.1.2.text" text-anchor="middle" stroke="rgb(0,0,0)" opacity="1" fill="rgb(0,0,0)" stroke-opacity="1" fill-opacity="1" font-size="9.6" font-weight="normal" font-style="normal">
                  <tspan id="Fig:densplot_01.ticklabels.bottom.panel.1.1.1.2.tspan.1" dy="7.18" x="0">500</tspan>
                </text>
              </g>
            </g>
            <g id="Fig:densplot_01.ticklabels.bottom.panel.1.1.1.3" transform="translate(205.54, 36.85)" stroke-width="0.1">
              <g id="Fig:densplot_01.ticklabels.bottom.panel.1.1.1.3.scale" transform="scale(1, -1)">
                <text x="0" y="0" id="Fig:densplot_01.ticklabels.bottom.panel.1.1.1.3.text" text-anchor="middle" stroke="rgb(0,0,0)" opacity="1" fill="rgb(0,0,0)" stroke-opacity="1" fill-opacity="1" font-size="9.6" font-weight="normal" font-style="normal">
                  <tspan id="Fig:densplot_01.ticklabels.bottom.panel.1.1.1.3.tspan.1" dy="7.18" x="0">1000</tspan>
                </text>
              </g>
            </g>
          </g>
        </g>
        <defs>
          <clipPath id="Fig:densplot_01.panel.1.1.vp.2.clipPath">
            <rect x="50.8" y="48.19" width="225.2" height="185.81" fill="none" stroke="none"/>
          </clipPath>
        </defs>
        <g id="Fig:densplot_01.panel.1.1.vp.2" clip-path="url(#Fig:densplot_01.panel.1.1.vp.2.clipPath)">
          <g id="Fig:densplot_01.xyplot.lines.group.1.panel.1.1.1">
            <polyline id="Fig:densplot_01.xyplot.lines.group.1.panel.1.1.1.1" points="64.82,59.6 65.2,59.95 65.59,67.09 65.98,105.67 66.36,169.08 66.75,198.88 67.13,175.65 67.52,140.48 67.91,117.51 68.29,103.6 68.68,94 69.06,87.23 69.45,82.26 69.83,78.64 70.22,75.79 70.61,73.48 70.99,71.74 71.38,70.49 71.76,69.33 72.15,68.25 72.54,67.44 72.92,66.87 73.31,66.25 73.69,65.67 74.08,65.21 74.46,64.8 74.85,64.42 75.24,64.08 75.62,63.84 76.01,63.62 76.39,63.34 76.78,63.09 77.17,62.97 77.55,62.82 77.94,62.67 78.32,62.48 78.71,62.32 79.09,62.19 79.48,62.06 79.87,61.95 80.25,61.87 80.64,61.78 81.02,61.67 81.41,61.58 81.8,61.5 82.18,61.43 82.57,61.38 82.95,61.33 83.34,61.25 83.72,61.2 84.11,61.14 84.5,61.1 84.88,61.1 85.27,61.04 85.65,60.94 86.04,60.88 86.43,60.88 86.81,60.89 87.2,60.82 87.58,60.8 87.97,60.8 88.36,60.76 88.74,60.7 89.13,60.7 89.51,60.72 89.9,60.71 90.28,60.64 90.67,60.58 91.06,60.54 91.44,60.51 91.83,60.49 92.21,60.48 92.6,60.47 92.99,60.48 93.37,60.44 93.76,60.41 94.14,60.43 94.53,60.42 94.91,60.39 95.3,60.39 95.69,60.36 96.07,60.35 96.46,60.34 96.84,60.31 97.23,60.3 97.62,60.29 98,60.26 98.39,60.24 98.77,60.25 99.16,60.25 99.54,60.23 99.93,60.22 100.32,60.19 100.7,60.2 101.09,60.2 101.47,60.21 101.86,60.21 102.25,60.17 102.63,60.16 103.02,60.16 103.4,60.15 103.79,60.12 104.17,60.13 104.56,60.1 104.95,60.08 105.33,60.1 105.72,60.08 106.1,60.09 106.49,60.06 106.88,60.07 107.26,60.1 107.65,60.09 108.03,60.06 108.42,60.05 108.8,60.05 109.19,60.05 109.58,60.03 109.96,60.03 110.35,60.03 110.73,60.01 111.12,59.99 111.51,59.99 111.89,59.99 112.28,59.99 112.66,59.98 113.05,59.98 113.44,59.98 113.82,59.98 114.21,59.96 114.59,59.96 114.98,59.95 115.36,59.92 115.75,59.9 116.14,59.92 116.52,59.94 116.91,59.96 117.29,59.94 117.68,59.92 118.07,59.93 118.45,59.91 118.84,59.91 119.22,59.93 119.61,59.92 119.99,59.91 120.38,59.92 120.77,59.91 121.15,59.91 121.54,59.89 121.92,59.88 122.31,59.86 122.7,59.86 123.08,59.87 123.47,59.87 123.85,59.87 124.24,59.88 124.62,59.88 125.01,59.86 125.4,59.85 125.78,59.87 126.17,59.88 126.55,59.88 126.94,59.87 127.33,59.87 127.71,59.85 128.1,59.84 128.48,59.85 128.87,59.84 129.25,59.84 129.64,59.84 130.03,59.84 130.41,59.84 130.8,59.84 131.18,59.83 131.57,59.82 131.96,59.82 132.34,59.82 132.73,59.82 133.11,59.82 133.5,59.81 133.88,59.8 134.27,59.81 134.66,59.81 135.04,59.81 135.43,59.79 135.81,59.8 136.2,59.8 136.59,59.79 136.97,59.8 137.36,59.8 137.74,59.79 138.13,59.78 138.51,59.78 138.9,59.78 139.29,59.78 139.67,59.78 140.06,59.78 140.44,59.78 140.83,59.78 141.22,59.78 141.6,59.79 141.99,59.78 142.37,59.77 142.76,59.78 143.15,59.78 143.53,59.78 143.92,59.78 144.3,59.77 144.69,59.76 145.07,59.76 145.46,59.76 145.85,59.76 146.23,59.76 146.62,59.76 147,59.76 147.39,59.76 147.78,59.76 148.16,59.76 148.55,59.76 148.93,59.75 149.32,59.75 149.7,59.75 150.09,59.74 150.48,59.75 150.86,59.76 151.25,59.76 151.63,59.75 152.02,59.75 152.41,59.74 152.79,59.74 153.18,59.74 153.56,59.74 153.95,59.73 154.33,59.74 154.72,59.73 155.11,59.73 155.49,59.74 155.88,59.73 156.26,59.73 156.65,59.73 157.04,59.73 157.42,59.72 157.81,59.72 158.19,59.72 158.58,59.72 158.96,59.72 159.35,59.72 159.74,59.72 160.12,59.72 160.51,59.71 160.89,59.72 161.28,59.72 161.67,59.74 162.05,59.73 162.44,59.73 162.82,59.71 163.21,59.71 163.59,59.72 163.98,59.72 164.37,59.72 164.75,59.72 165.14,59.71 165.52,59.7 165.91,59.7 166.3,59.71 166.68,59.71 167.07,59.71 167.45,59.7 167.84,59.7 168.22,59.7 168.61,59.7 169,59.7 169.38,59.72 169.77,59.7 170.15,59.7 170.54,59.69 170.93,59.7 171.31,59.7 171.7,59.7 172.08,59.7 172.47,59.7 172.86,59.7 173.24,59.7 173.63,59.7 174.01,59.69 174.4,59.69 174.78,59.69 175.17,59.69 175.56,59.7 175.94,59.69 176.33,59.69 176.71,59.69 177.1,59.7 177.49,59.7 177.87,59.7 178.26,59.69 178.64,59.69 179.03,59.69 179.41,59.69 179.8,59.69 180.19,59.68 180.57,59.68 180.96,59.68 181.34,59.69 181.73,59.69 182.12,59.69 182.5,59.68 182.89,59.68 183.27,59.68 183.66,59.67 184.04,59.68 184.43,59.68 184.82,59.68 185.2,59.68 185.59,59.69 185.97,59.69 186.36,59.68 186.75,59.68 187.13,59.68 187.52,59.67 187.9,59.67 188.29,59.67 188.67,59.67 189.06,59.68 189.45,59.68 189.83,59.67 190.22,59.67 190.6,59.66 190.99,59.66 191.38,59.67 191.76,59.67 192.15,59.67 192.53,59.66 192.92,59.67 193.3,59.68 193.69,59.67 194.08,59.67 194.46,59.67 194.85,59.67 195.23,59.66 195.62,59.67 196.01,59.67 196.39,59.67 196.78,59.67 197.16,59.67 197.55,59.67 197.94,59.67 198.32,59.67 198.71,59.67 199.09,59.66 199.48,59.66 199.86,59.66 200.25,59.66 200.64,59.66 201.02,59.66 201.41,59.66 201.79,59.67 202.18,59.68 202.57,59.67 202.95,59.66 203.34,59.66 203.72,59.67 204.11,59.66 204.49,59.65 204.88,59.65 205.27,59.65 205.65,59.66 206.04,59.66 206.42,59.66 206.81,59.66 207.2,59.66 207.58,59.66 207.97,59.66 208.35,59.66 208.74,59.66 209.12,59.66 209.51,59.66 209.9,59.65 210.28,59.65 210.67,59.65 211.05,59.65 211.44,59.65 211.83,59.66 212.21,59.66 212.6,59.66 212.98,59.66 213.37,59.66 213.75,59.65 214.14,59.66 214.53,59.65 214.91,59.65 215.3,59.65 215.68,59.65 216.07,59.66 216.46,59.65 216.84,59.65 217.23,59.65 217.61,59.65 218,59.64 218.38,59.65 218.77,59.65 219.16,59.65 219.54,59.64 219.93,59.65 220.31,59.65 220.7,59.65 221.09,59.64 221.47,59.65 221.86,59.65 222.24,59.65 222.63,59.64 223.01,59.65 223.4,59.65 223.79,59.65 224.17,59.64 224.56,59.64 224.94,59.65 225.33,59.64 225.72,59.64 226.1,59.64 226.49,59.65 226.87,59.64 227.26,59.64 227.65,59.65 228.03,59.65 228.42,59.65 228.8,59.64 229.19,59.65 229.57,59.65 229.96,59.64 230.35,59.65 230.73,59.65 231.12,59.64 231.5,59.64 231.89,59.64 232.28,59.64 232.66,59.64 233.05,59.64 233.43,59.63 233.82,59.64 234.2,59.63 234.59,59.64 234.98,59.64 235.36,59.64 235.75,59.64 236.13,59.64 236.52,59.64 236.91,59.64 237.29,59.64 237.68,59.64 238.06,59.63 238.45,59.64 238.83,59.64 239.22,59.64 239.61,59.64 239.99,59.64 240.38,59.64 240.76,59.64 241.15,59.64 241.54,59.64 241.92,59.63 242.31,59.63 242.69,59.63 243.08,59.64 243.46,59.63 243.85,59.63 244.24,59.63 244.62,59.63 245.01,59.63 245.39,59.63 245.78,59.64 246.17,59.64 246.55,59.64 246.94,59.63 247.32,59.63 247.71,59.64 248.09,59.64 248.48,59.63 248.87,59.64 249.25,59.63 249.64,59.63 250.02,59.63 250.41,59.64 250.8,59.63 251.18,59.63 251.57,59.63 251.95,59.64 252.34,59.64 252.73,59.64 253.11,59.63 253.5,59.63 253.88,59.63 254.27,59.63 254.65,59.63 255.04,59.63 255.43,59.63 255.81,59.63 256.2,59.63 256.58,59.63 256.97,59.63 257.36,59.63 257.74,59.63 258.13,59.63 258.51,59.63 258.9,59.63 259.28,59.62 259.67,59.63 260.06,59.63 260.44,59.63 260.83,59.63 261.21,59.62 261.6,59.61 261.99,59.6" stroke-dasharray="none" stroke="rgb(31,120,180)" stroke-width="0.75" opacity="1" stroke-opacity="1" fill="none"/>
          </g>
          <g id="Fig:densplot_01.xyplot.lines.group.2.panel.1.1.1">
            <polyline id="Fig:densplot_01.xyplot.lines.group.2.panel.1.1.1.1" points="64.86,59.6 65.24,59.8 65.63,64.4 66.02,99.1 66.4,176.35 66.79,204.22 67.17,166 67.56,127.45 67.95,104.3 68.33,93.01 68.72,86.81 69.1,83.4 69.49,79.71 69.88,76.99 70.26,75.01 70.65,73.67 71.03,72.01 71.42,70.73 71.81,69.71 72.19,68.95 72.58,68.1 72.96,67.33 73.35,66.79 73.74,66.33 74.12,65.7 74.51,65.19 74.89,64.85 75.28,64.51 75.67,64.18 76.05,63.91 76.44,63.68 76.82,63.5 77.21,63.22 77.6,63.03 77.98,62.88 78.37,62.71 78.75,62.48 79.14,62.35 79.53,62.27 79.91,62.16 80.3,62.03 80.68,61.92 81.07,61.83 81.46,61.72 81.84,61.61 82.23,61.51 82.61,61.45 83,61.42 83.39,61.36 83.77,61.29 84.16,61.23 84.54,61.2 84.93,61.16 85.32,61.11 85.7,61.06 86.09,61.02 86.47,60.97 86.86,60.93 87.24,60.91 87.63,60.87 88.02,60.83 88.4,60.81 88.79,60.79 89.17,60.76 89.56,60.74 89.95,60.73 90.33,60.7 90.72,60.66 91.1,60.61 91.49,60.58 91.88,60.57 92.26,60.55 92.65,60.51 93.03,60.49 93.42,60.49 93.81,60.47 94.19,60.44 94.58,60.44 94.96,60.43 95.35,60.4 95.74,60.38 96.12,60.38 96.51,60.36 96.89,60.33 97.28,60.31 97.67,60.3 98.05,60.3 98.44,60.3 98.82,60.27 99.21,60.26 99.6,60.25 99.98,60.24 100.37,60.22 100.75,60.24 101.14,60.23 101.53,60.2 101.91,60.18 102.3,60.18 102.68,60.18 103.07,60.16 103.46,60.14 103.84,60.14 104.23,60.14 104.61,60.13 105,60.11 105.39,60.11 105.77,60.09 106.16,60.09 106.54,60.09 106.93,60.08 107.31,60.09 107.7,60.07 108.09,60.05 108.47,60.04 108.86,60.05 109.24,60.04 109.63,60.03 110.02,60.01 110.4,60.01 110.79,60.01 111.17,60.02 111.56,60.01 111.95,60.02 112.33,60.03 112.72,60.03 113.1,60 113.49,59.98 113.88,59.97 114.26,59.97 114.65,59.99 115.03,59.98 115.42,59.95 115.81,59.93 116.19,59.92 116.58,59.95 116.96,59.96 117.35,59.93 117.74,59.92 118.12,59.93 118.51,59.93 118.89,59.93 119.28,59.93 119.67,59.93 120.05,59.92 120.44,59.92 120.82,59.91 121.21,59.9 121.6,59.9 121.98,59.9 122.37,59.89 122.75,59.9 123.14,59.89 123.53,59.88 123.91,59.88 124.3,59.9 124.68,59.9 125.07,59.88 125.46,59.86 125.84,59.88 126.23,59.88 126.61,59.87 127,59.86 127.39,59.86 127.77,59.85 128.16,59.84 128.54,59.85 128.93,59.85 129.31,59.84 129.7,59.83 130.09,59.83 130.47,59.83 130.86,59.83 131.24,59.83 131.63,59.83 132.02,59.83 132.4,59.82 132.79,59.81 133.17,59.82 133.56,59.81 133.95,59.82 134.33,59.82 134.72,59.82 135.1,59.82 135.49,59.82 135.88,59.82 136.26,59.82 136.65,59.81 137.03,59.8 137.42,59.8 137.81,59.8 138.19,59.8 138.58,59.8 138.96,59.79 139.35,59.79 139.74,59.78 140.12,59.77 140.51,59.77 140.89,59.78 141.28,59.8 141.67,59.8 142.05,59.79 142.44,59.78 142.82,59.78 143.21,59.78 143.6,59.78 143.98,59.78 144.37,59.78 144.75,59.78 145.14,59.77 145.53,59.76 145.91,59.77 146.3,59.76 146.68,59.76 147.07,59.77 147.46,59.77 147.84,59.76 148.23,59.76 148.61,59.77 149,59.76 149.39,59.75 149.77,59.75 150.16,59.74 150.54,59.74 150.93,59.76 151.31,59.76 151.7,59.75 152.09,59.74 152.47,59.74 152.86,59.74 153.24,59.74 153.63,59.75 154.02,59.75 154.4,59.75 154.79,59.74 155.17,59.75 155.56,59.75 155.95,59.74 156.33,59.74 156.72,59.74 157.1,59.74 157.49,59.74 157.88,59.74 158.26,59.73 158.65,59.72 159.03,59.73 159.42,59.73 159.81,59.73 160.19,59.73 160.58,59.73 160.96,59.72 161.35,59.72 161.74,59.71 162.12,59.72 162.51,59.74 162.89,59.73 163.28,59.72 163.67,59.72 164.05,59.72 164.44,59.73 164.82,59.73 165.21,59.73 165.6,59.72 165.98,59.72 166.37,59.71 166.75,59.71 167.14,59.71 167.53,59.71 167.91,59.71 168.3,59.71 168.68,59.71 169.07,59.71 169.46,59.71 169.84,59.71 170.23,59.7 170.61,59.69 171,59.69 171.39,59.7 171.77,59.71 172.16,59.71 172.54,59.7 172.93,59.7 173.31,59.7 173.7,59.7 174.09,59.69 174.47,59.69 174.86,59.69 175.24,59.69 175.63,59.7 176.02,59.69 176.4,59.7 176.79,59.7 177.17,59.69 177.56,59.7 177.95,59.69 178.33,59.69 178.72,59.69 179.1,59.69 179.49,59.69 179.88,59.69 180.26,59.69 180.65,59.68 181.03,59.68 181.42,59.68 181.81,59.68 182.19,59.68 182.58,59.68 182.96,59.68 183.35,59.68 183.74,59.68 184.12,59.68 184.51,59.68 184.89,59.68 185.28,59.68 185.67,59.67 186.05,59.68 186.44,59.68 186.82,59.68 187.21,59.68 187.6,59.68 187.98,59.67 188.37,59.67 188.75,59.68 189.14,59.68 189.53,59.67 189.91,59.67 190.3,59.68 190.68,59.68 191.07,59.67 191.46,59.67 191.84,59.67 192.23,59.67 192.61,59.68 193,59.68 193.38,59.68 193.77,59.68 194.16,59.68 194.54,59.67 194.93,59.67 195.31,59.67 195.7,59.67 196.09,59.67 196.47,59.68 196.86,59.67 197.24,59.67 197.63,59.66 198.02,59.67 198.4,59.67 198.79,59.67 199.17,59.67 199.56,59.67 199.95,59.67 200.33,59.67 200.72,59.66 201.1,59.66 201.49,59.66 201.88,59.67 202.26,59.66 202.65,59.66 203.03,59.66 203.42,59.66 203.81,59.66 204.19,59.66 204.58,59.66 204.96,59.66 205.35,59.66 205.74,59.66 206.12,59.66 206.51,59.66 206.89,59.66 207.28,59.66 207.67,59.66 208.05,59.66 208.44,59.66 208.82,59.65 209.21,59.65 209.6,59.67 209.98,59.66 210.37,59.66 210.75,59.66 211.14,59.66 211.53,59.65 211.91,59.65 212.3,59.65 212.68,59.65 213.07,59.66 213.46,59.66 213.84,59.66 214.23,59.65 214.61,59.65 215,59.66 215.38,59.65 215.77,59.65 216.16,59.66 216.54,59.65 216.93,59.65 217.31,59.65 217.7,59.65 218.09,59.65 218.47,59.65 218.86,59.64 219.24,59.65 219.63,59.65 220.02,59.65 220.4,59.64 220.79,59.65 221.17,59.66 221.56,59.65 221.95,59.65 222.33,59.65 222.72,59.64 223.1,59.64 223.49,59.65 223.88,59.65 224.26,59.65 224.65,59.64 225.03,59.64 225.42,59.65 225.81,59.65 226.19,59.65 226.58,59.65 226.96,59.65 227.35,59.65 227.74,59.65 228.12,59.64 228.51,59.64 228.89,59.64 229.28,59.64 229.67,59.65 230.05,59.64 230.44,59.64 230.82,59.64 231.21,59.64 231.6,59.64 231.98,59.64 232.37,59.64 232.75,59.64 233.14,59.65 233.53,59.64 233.91,59.64 234.3,59.64 234.68,59.64 235.07,59.65 235.46,59.65 235.84,59.65 236.23,59.65 236.61,59.64 237,59.64 237.38,59.64 237.77,59.64 238.16,59.64 238.54,59.64 238.93,59.64 239.31,59.64 239.7,59.64 240.09,59.64 240.47,59.64 240.86,59.64 241.24,59.64 241.63,59.64 242.02,59.63 242.4,59.63 242.79,59.63 243.17,59.64 243.56,59.64 243.95,59.64 244.33,59.63 244.72,59.63 245.1,59.64 245.49,59.64 245.88,59.65 246.26,59.64 246.65,59.64 247.03,59.64 247.42,59.64 247.81,59.64 248.19,59.64 248.58,59.64 248.96,59.63 249.35,59.63 249.74,59.64 250.12,59.64 250.51,59.64 250.89,59.64 251.28,59.63 251.67,59.63 252.05,59.63 252.44,59.63 252.82,59.63 253.21,59.64 253.6,59.63 253.98,59.63 254.37,59.63 254.75,59.63 255.14,59.63 255.53,59.63 255.91,59.63 256.3,59.63 256.68,59.63 257.07,59.63 257.46,59.63 257.84,59.64 258.23,59.64 258.61,59.63 259,59.63 259.38,59.64 259.77,59.63 260.16,59.63 260.54,59.63 260.93,59.62 261.31,59.63 261.7,59.61 262.09,59.6" stroke-dasharray="none" stroke="rgb(31,120,180)" stroke-width="0.75" opacity="1" stroke-opacity="1" fill="none"/>
          </g>
          <g id="Fig:densplot_01.xyplot.lines.group.3.panel.1.1.1">
            <polyline id="Fig:densplot_01.xyplot.lines.group.3.panel.1.1.1.1" points="64.82,59.6 65.2,59.9 65.59,66.58 65.98,108.99 66.36,181.37 66.75,218.04 67.13,186.32 67.52,138.2 67.91,109.32 68.29,94.99 68.68,86.97 69.06,81.88 69.45,78.23 69.83,75.65 70.22,73.48 70.61,71.72 70.99,70.43 71.38,69.52 71.76,68.57 72.15,67.61 72.54,66.9 72.92,66.4 73.31,65.89 73.69,65.37 74.08,64.92 74.46,64.59 74.85,64.26 75.24,63.88 75.62,63.62 76.01,63.44 76.39,63.2 76.78,62.9 77.17,62.73 77.55,62.61 77.94,62.47 78.32,62.31 78.71,62.17 79.09,62.07 79.48,61.95 79.87,61.89 80.25,61.85 80.64,61.75 81.02,61.64 81.41,61.53 81.8,61.46 82.18,61.4 82.57,61.35 82.95,61.29 83.34,61.25 83.72,61.21 84.11,61.13 84.5,61.07 84.88,61.06 85.27,61.03 85.65,60.94 86.04,60.95 86.43,60.96 86.81,60.9 87.2,60.8 87.58,60.77 87.97,60.77 88.35,60.78 88.74,60.74 89.13,60.71 89.51,60.71 89.9,60.71 90.28,60.62 90.67,60.57 91.06,60.59 91.44,60.59 91.83,60.55 92.21,60.53 92.6,60.52 92.99,60.52 93.37,60.47 93.76,60.46 94.14,60.47 94.53,60.43 94.91,60.42 95.3,60.4 95.69,60.38 96.07,60.37 96.46,60.35 96.84,60.35 97.23,60.35 97.62,60.32 98,60.31 98.39,60.29 98.77,60.25 99.16,60.22 99.54,60.22 99.93,60.24 100.32,60.25 100.7,60.22 101.09,60.23 101.47,60.23 101.86,60.2 102.25,60.18 102.63,60.2 103.02,60.19 103.4,60.15 103.79,60.13 104.17,60.14 104.56,60.13 104.95,60.14 105.33,60.15 105.72,60.12 106.1,60.12 106.49,60.12 106.88,60.11 107.26,60.11 107.65,60.1 108.03,60.08 108.42,60.06 108.8,60.06 109.19,60.06 109.58,60.05 109.96,60.03 110.35,60.02 110.73,60.04 111.12,60.01 111.51,60.02 111.89,59.99 112.28,60.01 112.66,60.02 113.05,59.98 113.43,59.99 113.82,60 114.21,60.02 114.59,60 114.98,59.99 115.36,59.98 115.75,59.95 116.14,59.93 116.52,59.96 116.91,59.97 117.29,59.95 117.68,59.94 118.07,59.95 118.45,59.95 118.84,59.93 119.22,59.92 119.61,59.93 119.99,59.92 120.38,59.92 120.77,59.92 121.15,59.93 121.54,59.92 121.92,59.92 122.31,59.9 122.7,59.9 123.08,59.9 123.47,59.89 123.85,59.9 124.24,59.91 124.62,59.9 125.01,59.89 125.4,59.88 125.78,59.91 126.17,59.9 126.55,59.88 126.94,59.87 127.33,59.87 127.71,59.86 128.1,59.85 128.48,59.86 128.87,59.87 129.25,59.87 129.64,59.86 130.03,59.85 130.41,59.85 130.8,59.85 131.18,59.85 131.57,59.85 131.96,59.85 132.34,59.85 132.73,59.85 133.11,59.85 133.5,59.83 133.88,59.81 134.27,59.81 134.66,59.82 135.04,59.83 135.43,59.82 135.81,59.82 136.2,59.81 136.59,59.81 136.97,59.81 137.36,59.82 137.74,59.81 138.13,59.81 138.51,59.8 138.9,59.8 139.29,59.79 139.67,59.79 140.06,59.79 140.44,59.8 140.83,59.8 141.22,59.8 141.6,59.8 141.99,59.79 142.37,59.8 142.76,59.8 143.15,59.79 143.53,59.79 143.92,59.79 144.3,59.78 144.69,59.78 145.07,59.79 145.46,59.79 145.85,59.78 146.23,59.78 146.62,59.77 147,59.78 147.39,59.78 147.78,59.77 148.16,59.78 148.55,59.77 148.93,59.76 149.32,59.77 149.7,59.77 150.09,59.75 150.48,59.75 150.86,59.76 151.25,59.76 151.63,59.76 152.02,59.76 152.41,59.76 152.79,59.75 153.18,59.75 153.56,59.75 153.95,59.75 154.33,59.76 154.72,59.74 155.11,59.74 155.49,59.74 155.88,59.75 156.26,59.75 156.65,59.74 157.04,59.73 157.42,59.74 157.81,59.75 158.19,59.74 158.58,59.73 158.96,59.74 159.35,59.74 159.74,59.74 160.12,59.75 160.51,59.73 160.89,59.74 161.28,59.73 161.67,59.73 162.05,59.74 162.44,59.75 162.82,59.75 163.21,59.73 163.59,59.73 163.98,59.73 164.37,59.72 164.75,59.72 165.14,59.72 165.52,59.73 165.91,59.72 166.3,59.72 166.68,59.72 167.07,59.72 167.45,59.73 167.84,59.72 168.23,59.71 168.61,59.71 169,59.72 169.38,59.72 169.77,59.71 170.15,59.71 170.54,59.7 170.93,59.7 171.31,59.7 171.7,59.7 172.08,59.7 172.47,59.71 172.86,59.71 173.24,59.71 173.63,59.72 174.01,59.72 174.4,59.71 174.78,59.7 175.17,59.7 175.56,59.69 175.94,59.7 176.33,59.7 176.71,59.71 177.1,59.7 177.49,59.7 177.87,59.7 178.26,59.7 178.64,59.71 179.03,59.7 179.41,59.7 179.8,59.7 180.19,59.7 180.57,59.69 180.96,59.7 181.34,59.71 181.73,59.7 182.12,59.7 182.5,59.7 182.89,59.69 183.27,59.69 183.66,59.69 184.04,59.7 184.43,59.69 184.82,59.69 185.2,59.69 185.59,59.69 185.97,59.69 186.36,59.69 186.75,59.69 187.13,59.69 187.52,59.69 187.9,59.68 188.29,59.67 188.67,59.67 189.06,59.68 189.45,59.68 189.83,59.68 190.22,59.69 190.6,59.69 190.99,59.69 191.38,59.68 191.76,59.68 192.15,59.68 192.53,59.67 192.92,59.67 193.3,59.68 193.69,59.68 194.08,59.68 194.46,59.68 194.85,59.68 195.23,59.68 195.62,59.67 196.01,59.67 196.39,59.68 196.78,59.68 197.16,59.68 197.55,59.67 197.94,59.67 198.32,59.68 198.71,59.67 199.09,59.67 199.48,59.67 199.86,59.67 200.25,59.68 200.64,59.67 201.02,59.67 201.41,59.66 201.79,59.67 202.18,59.67 202.57,59.68 202.95,59.68 203.34,59.68 203.72,59.67 204.11,59.67 204.49,59.67 204.88,59.67 205.27,59.67 205.65,59.67 206.04,59.66 206.42,59.66 206.81,59.66 207.2,59.66 207.58,59.66 207.97,59.66 208.35,59.67 208.74,59.67 209.12,59.67 209.51,59.67 209.9,59.67 210.28,59.67 210.67,59.67 211.05,59.66 211.44,59.66 211.83,59.67 212.21,59.67 212.6,59.66 212.98,59.66 213.37,59.66 213.75,59.66 214.14,59.66 214.53,59.66 214.91,59.66 215.3,59.66 215.68,59.65 216.07,59.65 216.46,59.65 216.84,59.65 217.23,59.66 217.61,59.66 218,59.66 218.38,59.66 218.77,59.66 219.16,59.65 219.54,59.66 219.93,59.65 220.31,59.65 220.7,59.65 221.09,59.65 221.47,59.65 221.86,59.66 222.24,59.65 222.63,59.65 223.02,59.65 223.4,59.67 223.79,59.65 224.17,59.65 224.56,59.66 224.94,59.64 225.33,59.64 225.72,59.65 226.1,59.66 226.49,59.67 226.87,59.66 227.26,59.65 227.65,59.65 228.03,59.65 228.42,59.65 228.8,59.64 229.19,59.65 229.57,59.65 229.96,59.64 230.35,59.64 230.73,59.65 231.12,59.65 231.5,59.64 231.89,59.64 232.28,59.65 232.66,59.65 233.05,59.64 233.43,59.65 233.82,59.65 234.2,59.65 234.59,59.65 234.98,59.65 235.36,59.65 235.75,59.65 236.13,59.64 236.52,59.64 236.91,59.64 237.29,59.64 237.68,59.65 238.06,59.65 238.45,59.64 238.83,59.64 239.22,59.65 239.61,59.64 239.99,59.64 240.38,59.64 240.76,59.65 241.15,59.65 241.54,59.64 241.92,59.64 242.31,59.64 242.69,59.64 243.08,59.64 243.46,59.64 243.85,59.65 244.24,59.64 244.62,59.64 245.01,59.64 245.39,59.64 245.78,59.65 246.17,59.64 246.55,59.64 246.94,59.64 247.32,59.64 247.71,59.64 248.1,59.64 248.48,59.64 248.87,59.65 249.25,59.64 249.64,59.64 250.02,59.64 250.41,59.64 250.8,59.63 251.18,59.63 251.57,59.64 251.95,59.64 252.34,59.64 252.73,59.64 253.11,59.64 253.5,59.64 253.88,59.64 254.27,59.64 254.65,59.64 255.04,59.64 255.43,59.63 255.81,59.64 256.2,59.63 256.58,59.63 256.97,59.64 257.36,59.63 257.74,59.63 258.13,59.64 258.51,59.63 258.9,59.63 259.28,59.63 259.67,59.63 260.06,59.63 260.44,59.63 260.83,59.63 261.21,59.63 261.6,59.61 261.99,59.6" stroke-dasharray="none" stroke="rgb(31,120,180)" stroke-width="0.75" opacity="1" stroke-opacity="1" fill="none"/>
          </g>
          <g id="Fig:densplot_01.xyplot.lines.group.4.panel.1.1.1">
            <polyline id="Fig:densplot_01.xyplot.lines.group.4.panel.1.1.1.1" points="64.88,59.6 65.26,60.19 65.65,69.01 66.03,110.69 66.42,162.81 66.81,188.54 67.19,170.32 67.58,134.81 67.96,110.17 68.35,95.24 68.73,87.5 69.12,83.1 69.51,79.8 69.89,76.51 70.28,74.24 70.66,72.71 71.05,71.59 71.44,70.2 71.82,69.12 72.21,68.32 72.59,67.71 72.98,66.91 73.37,66.35 73.75,65.93 74.14,65.49 74.52,64.96 74.91,64.55 75.29,64.31 75.68,64.06 76.07,63.75 76.45,63.5 76.84,63.25 77.22,63.05 77.61,62.84 78,62.71 78.38,62.58 78.77,62.46 79.15,62.29 79.54,62.17 79.93,62.07 80.31,61.95 80.7,61.83 81.08,61.73 81.47,61.69 81.86,61.65 82.24,61.58 82.63,61.47 83.01,61.41 83.4,61.35 83.78,61.26 84.17,61.2 84.56,61.18 84.94,61.12 85.33,61.06 85.71,61.05 86.1,61.04 86.49,60.96 86.87,60.91 87.26,60.89 87.64,60.87 88.03,60.86 88.42,60.83 88.8,60.8 89.19,60.79 89.57,60.8 89.96,60.76 90.34,60.7 90.73,60.65 91.12,60.63 91.5,60.6 91.89,60.59 92.27,60.59 92.66,60.57 93.05,60.53 93.43,60.51 93.82,60.51 94.2,60.49 94.59,60.46 94.98,60.43 95.36,60.42 95.75,60.41 96.13,60.4 96.52,60.39 96.91,60.37 97.29,60.35 97.68,60.35 98.06,60.33 98.45,60.32 98.83,60.29 99.22,60.27 99.61,60.27 99.99,60.28 100.38,60.25 100.76,60.23 101.15,60.24 101.54,60.24 101.92,60.24 102.31,60.21 102.69,60.19 103.08,60.18 103.47,60.16 103.85,60.17 104.24,60.16 104.62,60.15 105.01,60.14 105.39,60.14 105.78,60.15 106.17,60.14 106.55,60.12 106.94,60.11 107.32,60.1 107.71,60.12 108.1,60.09 108.48,60.08 108.87,60.08 109.25,60.07 109.64,60.07 110.03,60.04 110.41,60.05 110.8,60.04 111.18,60.04 111.57,60.04 111.96,60.04 112.34,60.05 112.73,60.03 113.11,60.01 113.5,59.99 113.88,59.99 114.27,59.98 114.66,60.01 115.04,60 115.43,59.98 115.81,59.95 116.2,59.96 116.59,59.96 116.97,59.95 117.36,59.96 117.74,59.98 118.13,59.98 118.52,59.96 118.9,59.93 119.29,59.92 119.67,59.93 120.06,59.94 120.45,59.94 120.83,59.94 121.22,59.93 121.6,59.93 121.99,59.91 122.37,59.91 122.76,59.91 123.15,59.91 123.53,59.91 123.92,59.9 124.3,59.89 124.69,59.88 125.08,59.88 125.46,59.89 125.85,59.9 126.23,59.89 126.62,59.88 127.01,59.88 127.39,59.88 127.78,59.87 128.16,59.88 128.55,59.87 128.93,59.86 129.32,59.85 129.71,59.86 130.09,59.87 130.48,59.87 130.86,59.85 131.25,59.84 131.64,59.85 132.02,59.85 132.41,59.84 132.79,59.84 133.18,59.83 133.57,59.83 133.95,59.84 134.34,59.84 134.72,59.83 135.11,59.82 135.5,59.82 135.88,59.82 136.27,59.82 136.65,59.82 137.04,59.81 137.42,59.81 137.81,59.81 138.2,59.81 138.58,59.82 138.97,59.81 139.35,59.8 139.74,59.8 140.13,59.79 140.51,59.79 140.9,59.79 141.28,59.8 141.67,59.81 142.06,59.79 142.44,59.79 142.83,59.79 143.21,59.79 143.6,59.79 143.98,59.78 144.37,59.78 144.76,59.79 145.14,59.79 145.53,59.79 145.91,59.79 146.3,59.78 146.69,59.78 147.07,59.77 147.46,59.77 147.84,59.78 148.23,59.77 148.62,59.77 149,59.79 149.39,59.79 149.77,59.77 150.16,59.76 150.55,59.77 150.93,59.76 151.32,59.76 151.7,59.76 152.09,59.75 152.47,59.75 152.86,59.76 153.25,59.76 153.63,59.77 154.02,59.77 154.4,59.77 154.79,59.76 155.18,59.76 155.56,59.75 155.95,59.75 156.33,59.75 156.72,59.75 157.11,59.75 157.49,59.75 157.88,59.75 158.26,59.74 158.65,59.74 159.03,59.74 159.42,59.74 159.81,59.74 160.19,59.73 160.58,59.74 160.96,59.74 161.35,59.74 161.74,59.73 162.12,59.74 162.51,59.74 162.89,59.73 163.28,59.73 163.67,59.72 164.05,59.73 164.44,59.73 164.82,59.71 165.21,59.72 165.6,59.73 165.98,59.72 166.37,59.72 166.75,59.71 167.14,59.71 167.52,59.72 167.91,59.72 168.3,59.72 168.68,59.72 169.07,59.72 169.45,59.71 169.84,59.71 170.23,59.72 170.61,59.71 171,59.71 171.38,59.71 171.77,59.71 172.16,59.71 172.54,59.7 172.93,59.69 173.31,59.7 173.7,59.7 174.08,59.7 174.47,59.71 174.86,59.72 175.24,59.71 175.63,59.71 176.01,59.7 176.4,59.7 176.79,59.7 177.17,59.7 177.56,59.7 177.94,59.7 178.33,59.7 178.72,59.7 179.1,59.7 179.49,59.7 179.87,59.7 180.26,59.7 180.65,59.7 181.03,59.69 181.42,59.7 181.8,59.69 182.19,59.7 182.57,59.7 182.96,59.69 183.35,59.69 183.73,59.69 184.12,59.69 184.5,59.69 184.89,59.69 185.28,59.69 185.66,59.69 186.05,59.68 186.43,59.68 186.82,59.69 187.21,59.69 187.59,59.68 187.98,59.68 188.36,59.68 188.75,59.68 189.14,59.69 189.52,59.68 189.91,59.68 190.29,59.68 190.68,59.67 191.06,59.67 191.45,59.68 191.84,59.68 192.22,59.68 192.61,59.68 192.99,59.69 193.38,59.69 193.77,59.68 194.15,59.68 194.54,59.68 194.92,59.68 195.31,59.67 195.7,59.68 196.08,59.68 196.47,59.68 196.85,59.67 197.24,59.68 197.62,59.68 198.01,59.67 198.4,59.67 198.78,59.67 199.17,59.68 199.55,59.68 199.94,59.67 200.33,59.67 200.71,59.68 201.1,59.68 201.48,59.67 201.87,59.67 202.26,59.67 202.64,59.67 203.03,59.67 203.41,59.67 203.8,59.68 204.19,59.67 204.57,59.67 204.96,59.67 205.34,59.66 205.73,59.66 206.11,59.67 206.5,59.67 206.89,59.67 207.27,59.66 207.66,59.66 208.04,59.66 208.43,59.67 208.82,59.67 209.2,59.66 209.59,59.67 209.97,59.67 210.36,59.66 210.75,59.67 211.13,59.66 211.52,59.67 211.9,59.66 212.29,59.65 212.67,59.66 213.06,59.66 213.45,59.67 213.83,59.66 214.22,59.66 214.6,59.66 214.99,59.66 215.38,59.66 215.76,59.66 216.15,59.66 216.53,59.66 216.92,59.66 217.31,59.66 217.69,59.66 218.08,59.66 218.46,59.66 218.85,59.66 219.24,59.65 219.62,59.65 220.01,59.65 220.39,59.65 220.78,59.65 221.16,59.65 221.55,59.65 221.94,59.65 222.32,59.65 222.71,59.65 223.09,59.65 223.48,59.65 223.87,59.65 224.25,59.66 224.64,59.66 225.02,59.65 225.41,59.65 225.8,59.65 226.18,59.65 226.57,59.65 226.95,59.65 227.34,59.65 227.72,59.65 228.11,59.65 228.5,59.65 228.88,59.65 229.27,59.64 229.65,59.64 230.04,59.64 230.43,59.65 230.81,59.65 231.2,59.65 231.58,59.65 231.97,59.65 232.36,59.65 232.74,59.65 233.13,59.65 233.51,59.65 233.9,59.65 234.29,59.65 234.67,59.65 235.06,59.65 235.44,59.64 235.83,59.64 236.21,59.64 236.6,59.65 236.99,59.65 237.37,59.64 237.76,59.65 238.14,59.64 238.53,59.64 238.92,59.64 239.3,59.64 239.69,59.64 240.07,59.65 240.46,59.64 240.85,59.64 241.23,59.64 241.62,59.64 242,59.65 242.39,59.64 242.77,59.64 243.16,59.64 243.55,59.64 243.93,59.64 244.32,59.64 244.7,59.64 245.09,59.64 245.48,59.64 245.86,59.64 246.25,59.64 246.63,59.64 247.02,59.64 247.41,59.64 247.79,59.64 248.18,59.64 248.56,59.64 248.95,59.64 249.34,59.64 249.72,59.64 250.11,59.63 250.49,59.64 250.88,59.65 251.26,59.64 251.65,59.64 252.04,59.64 252.42,59.64 252.81,59.64 253.19,59.64 253.58,59.64 253.97,59.64 254.35,59.64 254.74,59.64 255.12,59.64 255.51,59.64 255.9,59.64 256.28,59.64 256.67,59.64 257.05,59.63 257.44,59.63 257.83,59.63 258.21,59.63 258.6,59.64 258.98,59.64 259.37,59.64 259.75,59.64 260.14,59.64 260.53,59.63 260.91,59.63 261.3,59.62 261.68,59.61 262.07,59.6" stroke-dasharray="none" stroke="rgb(31,120,180)" stroke-width="0.75" opacity="1" stroke-opacity="1" fill="none"/>
          </g>
          <g id="Fig:densplot_01.xyplot.lines.group.5.panel.1.1.1">
            <polyline id="Fig:densplot_01.xyplot.lines.group.5.panel.1.1.1.1" points="64.78,59.6 65.17,59.91 65.56,66.06 65.94,105.82 66.33,171.64 66.71,203.07 67.1,181.48 67.49,141.56 67.87,111.75 68.26,95.39 68.64,86.91 69.03,82.26 69.42,78.52 69.8,75.57 70.19,73.51 70.57,72.17 70.96,70.81 71.35,69.6 71.73,68.69 72.12,68.03 72.5,67.19 72.89,66.46 73.28,65.96 73.66,65.68 74.05,65.17 74.43,64.65 74.82,64.34 75.21,64.08 75.59,63.77 75.98,63.48 76.36,63.29 76.75,63.11 77.14,62.87 77.52,62.67 77.91,62.56 78.29,62.48 78.68,62.31 79.07,62.15 79.45,62.06 79.84,61.99 80.22,61.88 80.61,61.76 81,61.67 81.38,61.61 81.77,61.53 82.15,61.43 82.54,61.38 82.93,61.35 83.31,61.27 83.7,61.2 84.08,61.19 84.47,61.16 84.86,61.08 85.24,61.02 85.63,61 86.01,61 86.4,60.97 86.79,60.92 87.17,60.91 87.56,60.91 87.94,60.85 88.33,60.78 88.72,60.73 89.1,60.73 89.49,60.73 89.87,60.74 90.26,60.67 90.65,60.6 91.03,60.54 91.42,60.53 91.8,60.56 92.19,60.56 92.58,60.52 92.96,60.49 93.35,60.49 93.73,60.47 94.12,60.45 94.5,60.43 94.89,60.44 95.28,60.43 95.66,60.39 96.05,60.36 96.43,60.37 96.82,60.37 97.21,60.31 97.59,60.32 97.98,60.32 98.36,60.3 98.75,60.29 99.14,60.26 99.52,60.24 99.91,60.22 100.29,60.25 100.68,60.27 101.07,60.25 101.45,60.2 101.84,60.17 102.22,60.19 102.61,60.2 103,60.18 103.38,60.2 103.77,60.2 104.15,60.15 104.54,60.14 104.93,60.14 105.31,60.14 105.7,60.14 106.08,60.11 106.47,60.11 106.86,60.11 107.24,60.11 107.63,60.07 108.01,60.07 108.4,60.07 108.79,60.08 109.17,60.05 109.56,60.03 109.94,60.05 110.33,60.06 110.72,60.02 111.1,60.03 111.49,60.02 111.87,60.02 112.26,60 112.65,60.01 113.03,60 113.42,59.99 113.8,59.97 114.19,59.97 114.58,59.99 114.96,59.97 115.35,59.96 115.73,59.93 116.12,59.93 116.51,59.95 116.89,59.96 117.28,59.96 117.66,59.96 118.05,59.95 118.44,59.95 118.82,59.93 119.21,59.94 119.59,59.93 119.98,59.92 120.37,59.92 120.75,59.92 121.14,59.9 121.52,59.89 121.91,59.9 122.3,59.91 122.68,59.91 123.07,59.9 123.45,59.89 123.84,59.9 124.23,59.88 124.61,59.88 125,59.87 125.38,59.88 125.77,59.88 126.16,59.88 126.54,59.87 126.93,59.87 127.31,59.86 127.7,59.86 128.08,59.85 128.47,59.84 128.86,59.84 129.24,59.85 129.63,59.86 130.01,59.86 130.4,59.84 130.79,59.84 131.17,59.84 131.56,59.83 131.94,59.83 132.33,59.84 132.72,59.83 133.1,59.82 133.49,59.82 133.87,59.83 134.26,59.84 134.65,59.83 135.03,59.82 135.42,59.82 135.8,59.83 136.19,59.82 136.58,59.81 136.96,59.81 137.35,59.81 137.73,59.81 138.12,59.8 138.51,59.81 138.89,59.8 139.28,59.78 139.66,59.77 140.05,59.78 140.44,59.78 140.82,59.78 141.21,59.79 141.59,59.8 141.98,59.79 142.37,59.78 142.75,59.78 143.14,59.79 143.52,59.79 143.91,59.79 144.3,59.79 144.68,59.78 145.07,59.77 145.45,59.77 145.84,59.78 146.23,59.78 146.61,59.77 147,59.76 147.38,59.76 147.77,59.77 148.16,59.78 148.54,59.78 148.93,59.78 149.31,59.76 149.7,59.76 150.09,59.75 150.47,59.76 150.86,59.77 151.24,59.77 151.63,59.75 152.02,59.74 152.4,59.75 152.79,59.75 153.17,59.74 153.56,59.74 153.95,59.75 154.33,59.75 154.72,59.74 155.1,59.74 155.49,59.75 155.88,59.75 156.26,59.75 156.65,59.74 157.03,59.75 157.42,59.74 157.81,59.73 158.19,59.72 158.58,59.73 158.96,59.74 159.35,59.74 159.74,59.74 160.12,59.73 160.51,59.73 160.89,59.72 161.28,59.72 161.67,59.72 162.05,59.73 162.44,59.74 162.82,59.74 163.21,59.73 163.59,59.72 163.98,59.71 164.37,59.71 164.75,59.72 165.14,59.73 165.52,59.71 165.91,59.71 166.3,59.72 166.68,59.72 167.07,59.72 167.45,59.72 167.84,59.73 168.23,59.73 168.61,59.72 169,59.72 169.38,59.71 169.77,59.71 170.16,59.71 170.54,59.7 170.93,59.71 171.31,59.72 171.7,59.71 172.09,59.7 172.47,59.71 172.86,59.7 173.24,59.71 173.63,59.71 174.02,59.71 174.4,59.7 174.79,59.7 175.17,59.7 175.56,59.7 175.95,59.7 176.33,59.7 176.72,59.71 177.1,59.71 177.49,59.7 177.88,59.69 178.26,59.69 178.65,59.69 179.03,59.69 179.42,59.69 179.81,59.69 180.19,59.69 180.58,59.7 180.96,59.7 181.35,59.69 181.74,59.69 182.12,59.68 182.51,59.69 182.89,59.7 183.28,59.7 183.67,59.69 184.05,59.69 184.44,59.69 184.82,59.69 185.21,59.68 185.6,59.67 185.98,59.68 186.37,59.68 186.75,59.68 187.14,59.68 187.53,59.68 187.91,59.68 188.3,59.68 188.68,59.68 189.07,59.68 189.46,59.68 189.84,59.68 190.23,59.68 190.61,59.68 191,59.68 191.39,59.68 191.77,59.68 192.16,59.68 192.54,59.68 192.93,59.68 193.32,59.68 193.7,59.67 194.09,59.67 194.47,59.67 194.86,59.67 195.25,59.67 195.63,59.67 196.02,59.67 196.4,59.67 196.79,59.67 197.17,59.67 197.56,59.67 197.95,59.67 198.33,59.67 198.72,59.67 199.1,59.67 199.49,59.68 199.88,59.67 200.26,59.67 200.65,59.66 201.03,59.66 201.42,59.66 201.81,59.66 202.19,59.67 202.58,59.66 202.96,59.66 203.35,59.67 203.74,59.67 204.12,59.66 204.51,59.67 204.89,59.67 205.28,59.66 205.67,59.66 206.05,59.66 206.44,59.66 206.82,59.66 207.21,59.66 207.6,59.66 207.98,59.66 208.37,59.67 208.75,59.66 209.14,59.66 209.53,59.67 209.91,59.66 210.3,59.66 210.68,59.66 211.07,59.66 211.46,59.66 211.84,59.66 212.23,59.66 212.61,59.66 213,59.66 213.39,59.66 213.77,59.66 214.16,59.65 214.54,59.66 214.93,59.66 215.32,59.66 215.7,59.66 216.09,59.65 216.47,59.66 216.86,59.66 217.25,59.65 217.63,59.65 218.02,59.66 218.4,59.66 218.79,59.65 219.18,59.65 219.56,59.66 219.95,59.65 220.33,59.65 220.72,59.65 221.11,59.65 221.49,59.65 221.88,59.65 222.26,59.64 222.65,59.65 223.04,59.65 223.42,59.65 223.81,59.65 224.19,59.66 224.58,59.66 224.97,59.65 225.35,59.65 225.74,59.65 226.12,59.65 226.51,59.65 226.9,59.65 227.28,59.65 227.67,59.65 228.05,59.65 228.44,59.65 228.83,59.65 229.21,59.64 229.6,59.65 229.98,59.65 230.37,59.65 230.76,59.65 231.14,59.65 231.53,59.64 231.91,59.64 232.3,59.64 232.68,59.64 233.07,59.64 233.46,59.64 233.84,59.65 234.23,59.65 234.61,59.65 235,59.64 235.39,59.64 235.77,59.64 236.16,59.64 236.54,59.65 236.93,59.65 237.32,59.64 237.7,59.64 238.09,59.64 238.47,59.65 238.86,59.65 239.25,59.65 239.63,59.64 240.02,59.64 240.4,59.64 240.79,59.64 241.18,59.64 241.56,59.64 241.95,59.64 242.33,59.64 242.72,59.64 243.11,59.64 243.49,59.64 243.88,59.64 244.26,59.64 244.65,59.64 245.04,59.64 245.42,59.64 245.81,59.64 246.19,59.64 246.58,59.64 246.97,59.63 247.35,59.64 247.74,59.64 248.12,59.64 248.51,59.64 248.9,59.64 249.28,59.64 249.67,59.63 250.05,59.63 250.44,59.63 250.83,59.63 251.21,59.63 251.6,59.63 251.98,59.63 252.37,59.63 252.76,59.64 253.14,59.64 253.53,59.64 253.91,59.64 254.3,59.63 254.69,59.63 255.07,59.63 255.46,59.63 255.84,59.64 256.23,59.63 256.62,59.64 257,59.64 257.39,59.64 257.77,59.63 258.16,59.63 258.55,59.63 258.93,59.63 259.32,59.63 259.7,59.63 260.09,59.63 260.48,59.62 260.86,59.63 261.25,59.63 261.63,59.61 262.02,59.6" stroke-dasharray="none" stroke="rgb(31,120,180)" stroke-width="0.75" opacity="1" stroke-opacity="1" fill="none"/>
          </g>
          <g id="Fig:densplot_01.xyplot.lines.group.6.panel.1.1.1">
            <polyline id="Fig:densplot_01.xyplot.lines.group.6.panel.1.1.1.1" points="64.84,59.62 65.22,60.69 65.61,77.79 65.99,150.44 66.38,222.59 66.76,214.1 67.15,160.51 67.54,120.11 67.92,99.49 68.31,88.91 68.69,83.26 69.08,79.74 69.46,76.68 69.85,74.12 70.24,72.45 70.62,71.17 71.01,69.9 71.39,68.83 71.78,68.03 72.17,67.25 72.55,66.51 72.94,65.93 73.32,65.48 73.71,65.09 74.09,64.69 74.48,64.3 74.87,63.99 75.25,63.73 75.64,63.44 76.02,63.21 76.41,63.06 76.79,62.87 77.18,62.64 77.57,62.51 77.95,62.41 78.34,62.3 78.72,62.13 79.11,62.02 79.49,61.94 79.88,61.82 80.27,61.71 80.65,61.67 81.04,61.6 81.42,61.49 81.81,61.42 82.2,61.38 82.58,61.36 82.97,61.31 83.35,61.24 83.74,61.2 84.12,61.18 84.51,61.08 84.9,61.02 85.28,61 85.67,60.99 86.05,60.93 86.44,60.9 86.82,60.91 87.21,60.89 87.6,60.82 87.98,60.78 88.37,60.78 88.75,60.76 89.14,60.73 89.53,60.74 89.91,60.74 90.3,60.69 90.68,60.62 91.07,60.58 91.45,60.57 91.84,60.57 92.23,60.54 92.61,60.5 93,60.5 93.38,60.46 93.77,60.45 94.15,60.45 94.54,60.44 94.93,60.42 95.31,60.39 95.7,60.39 96.08,60.42 96.47,60.4 96.85,60.36 97.24,60.36 97.63,60.35 98.01,60.3 98.4,60.27 98.78,60.27 99.17,60.26 99.56,60.26 99.94,60.25 100.33,60.26 100.71,60.22 101.1,60.23 101.48,60.22 101.87,60.22 102.26,60.19 102.64,60.18 103.03,60.16 103.41,60.19 103.8,60.19 104.18,60.16 104.57,60.16 104.96,60.15 105.34,60.11 105.73,60.12 106.11,60.11 106.5,60.12 106.89,60.1 107.27,60.11 107.66,60.11 108.04,60.09 108.43,60.05 108.81,60.04 109.2,60.05 109.59,60.04 109.97,60.05 110.36,60.06 110.74,60.06 111.13,60.02 111.51,60.02 111.9,60.02 112.29,60.02 112.67,60 113.06,60 113.44,60.01 113.83,60.01 114.22,60 114.6,60 114.99,59.98 115.37,59.97 115.76,59.95 116.14,59.95 116.53,59.95 116.92,59.97 117.3,59.96 117.69,59.96 118.07,59.95 118.46,59.95 118.84,59.94 119.23,59.94 119.62,59.95 120,59.95 120.39,59.92 120.77,59.91 121.16,59.92 121.54,59.91 121.93,59.9 122.32,59.9 122.7,59.9 123.09,59.9 123.47,59.89 123.86,59.89 124.25,59.89 124.63,59.89 125.02,59.88 125.4,59.88 125.79,59.91 126.17,59.92 126.56,59.9 126.95,59.88 127.33,59.87 127.72,59.87 128.1,59.87 128.49,59.87 128.87,59.87 129.26,59.85 129.65,59.85 130.03,59.85 130.42,59.85 130.8,59.85 131.19,59.85 131.58,59.85 131.96,59.84 132.35,59.84 132.73,59.83 133.12,59.83 133.5,59.84 133.89,59.83 134.28,59.83 134.66,59.84 135.05,59.83 135.43,59.81 135.82,59.81 136.2,59.81 136.59,59.81 136.98,59.81 137.36,59.82 137.75,59.82 138.13,59.8 138.52,59.81 138.9,59.82 139.29,59.81 139.68,59.8 140.06,59.81 140.45,59.81 140.83,59.81 141.22,59.8 141.61,59.8 141.99,59.79 142.38,59.79 142.76,59.79 143.15,59.8 143.53,59.8 143.92,59.79 144.31,59.79 144.69,59.78 145.08,59.79 145.46,59.79 145.85,59.77 146.23,59.78 146.62,59.78 147.01,59.78 147.39,59.78 147.78,59.77 148.16,59.77 148.55,59.78 148.94,59.77 149.32,59.76 149.71,59.77 150.09,59.76 150.48,59.75 150.86,59.75 151.25,59.75 151.64,59.76 152.02,59.76 152.41,59.76 152.79,59.76 153.18,59.76 153.56,59.75 153.95,59.75 154.34,59.74 154.72,59.73 155.11,59.74 155.49,59.75 155.88,59.75 156.27,59.75 156.65,59.74 157.04,59.74 157.42,59.74 157.81,59.73 158.19,59.74 158.58,59.74 158.97,59.74 159.35,59.73 159.74,59.73 160.12,59.74 160.51,59.74 160.89,59.74 161.28,59.73 161.67,59.73 162.05,59.75 162.44,59.74 162.82,59.73 163.21,59.73 163.59,59.73 163.98,59.73 164.37,59.75 164.75,59.74 165.14,59.72 165.52,59.72 165.91,59.72 166.3,59.73 166.68,59.73 167.07,59.72 167.45,59.72 167.84,59.71 168.22,59.73 168.61,59.72 169,59.72 169.38,59.72 169.77,59.71 170.15,59.71 170.54,59.71 170.92,59.71 171.31,59.71 171.7,59.72 172.08,59.72 172.47,59.72 172.85,59.71 173.24,59.71 173.63,59.72 174.01,59.71 174.4,59.71 174.78,59.71 175.17,59.71 175.55,59.72 175.94,59.71 176.33,59.71 176.71,59.7 177.1,59.7 177.48,59.71 177.87,59.71 178.25,59.7 178.64,59.7 179.03,59.7 179.41,59.7 179.8,59.69 180.18,59.69 180.57,59.69 180.95,59.69 181.34,59.69 181.73,59.7 182.11,59.7 182.5,59.7 182.88,59.7 183.27,59.69 183.66,59.69 184.04,59.7 184.43,59.7 184.81,59.69 185.2,59.69 185.58,59.69 185.97,59.68 186.36,59.68 186.74,59.68 187.13,59.68 187.51,59.68 187.9,59.68 188.28,59.67 188.67,59.68 189.06,59.68 189.44,59.69 189.83,59.69 190.21,59.7 190.6,59.69 190.99,59.68 191.37,59.67 191.76,59.68 192.14,59.68 192.53,59.69 192.91,59.68 193.3,59.69 193.69,59.69 194.07,59.68 194.46,59.67 194.84,59.68 195.23,59.68 195.61,59.68 196,59.68 196.39,59.68 196.77,59.67 197.16,59.67 197.54,59.67 197.93,59.67 198.31,59.67 198.7,59.67 199.09,59.67 199.47,59.67 199.86,59.67 200.24,59.67 200.63,59.67 201.02,59.67 201.4,59.67 201.79,59.66 202.17,59.67 202.56,59.68 202.94,59.68 203.33,59.67 203.72,59.66 204.1,59.66 204.49,59.66 204.87,59.66 205.26,59.67 205.64,59.67 206.03,59.67 206.42,59.67 206.8,59.67 207.19,59.67 207.57,59.66 207.96,59.66 208.35,59.66 208.73,59.65 209.12,59.66 209.5,59.66 209.89,59.67 210.27,59.67 210.66,59.67 211.05,59.66 211.43,59.66 211.82,59.67 212.2,59.66 212.59,59.66 212.97,59.66 213.36,59.66 213.75,59.66 214.13,59.65 214.52,59.65 214.9,59.66 215.29,59.66 215.68,59.65 216.06,59.66 216.45,59.66 216.83,59.66 217.22,59.66 217.6,59.65 217.99,59.66 218.38,59.65 218.76,59.66 219.15,59.66 219.53,59.65 219.92,59.65 220.3,59.66 220.69,59.65 221.08,59.66 221.46,59.66 221.85,59.65 222.23,59.66 222.62,59.65 223,59.64 223.39,59.65 223.78,59.64 224.16,59.66 224.55,59.65 224.93,59.65 225.32,59.65 225.71,59.65 226.09,59.65 226.48,59.65 226.86,59.65 227.25,59.65 227.63,59.64 228.02,59.64 228.41,59.65 228.79,59.65 229.18,59.65 229.56,59.66 229.95,59.65 230.33,59.65 230.72,59.65 231.11,59.65 231.49,59.65 231.88,59.65 232.26,59.64 232.65,59.64 233.04,59.64 233.42,59.64 233.81,59.64 234.19,59.64 234.58,59.65 234.96,59.66 235.35,59.65 235.74,59.64 236.12,59.65 236.51,59.65 236.89,59.64 237.28,59.65 237.66,59.65 238.05,59.64 238.44,59.64 238.82,59.65 239.21,59.64 239.59,59.64 239.98,59.64 240.36,59.64 240.75,59.64 241.14,59.64 241.52,59.64 241.91,59.65 242.29,59.65 242.68,59.65 243.07,59.64 243.45,59.64 243.84,59.64 244.22,59.64 244.61,59.64 244.99,59.64 245.38,59.64 245.77,59.64 246.15,59.64 246.54,59.64 246.92,59.64 247.31,59.64 247.69,59.64 248.08,59.64 248.47,59.64 248.85,59.64 249.24,59.64 249.62,59.63 250.01,59.63 250.4,59.64 250.78,59.64 251.17,59.64 251.55,59.64 251.94,59.64 252.32,59.64 252.71,59.64 253.1,59.64 253.48,59.64 253.87,59.64 254.25,59.63 254.64,59.63 255.02,59.64 255.41,59.64 255.8,59.64 256.18,59.63 256.57,59.63 256.95,59.63 257.34,59.64 257.73,59.64 258.11,59.64 258.5,59.63 258.88,59.63 259.27,59.64 259.65,59.64 260.04,59.63 260.43,59.63 260.81,59.63 261.2,59.63 261.58,59.61 261.97,59.6" stroke-dasharray="none" stroke="rgb(31,120,180)" stroke-width="0.75" opacity="1" stroke-opacity="1" fill="none"/>
          </g>
          <g id="Fig:densplot_01.xyplot.lines.group.7.panel.1.1.1">
            <polyline id="Fig:densplot_01.xyplot.lines.group.7.panel.1.1.1.1" points="64.75,59.6 65.14,59.98 65.52,66.9 65.91,105 66.29,154.88 66.68,189.75 67.07,179.09 67.45,142.9 67.84,115 68.23,99.33 68.61,89.08 69,83.06 69.38,79.05 69.77,76.15 70.16,73.74 70.54,71.88 70.93,70.57 71.31,69.69 71.7,68.57 72.09,67.62 72.47,66.97 72.86,66.45 73.24,65.84 73.63,65.43 74.02,65.04 74.4,64.68 74.79,64.25 75.18,63.89 75.56,63.62 75.95,63.46 76.33,63.21 76.72,63.01 77.11,62.81 77.49,62.64 77.88,62.46 78.26,62.36 78.65,62.26 79.04,62.14 79.42,61.97 79.81,61.87 80.19,61.82 80.58,61.74 80.97,61.63 81.35,61.54 81.74,61.5 82.13,61.45 82.51,61.36 82.9,61.28 83.28,61.25 83.67,61.21 84.06,61.14 84.44,61.09 84.83,61.07 85.21,61.02 85.6,60.96 85.99,60.93 86.37,60.9 86.76,60.88 87.14,60.86 87.53,60.82 87.92,60.78 88.3,60.75 88.69,60.7 89.08,60.68 89.46,60.7 89.85,60.7 90.23,60.66 90.62,60.61 91.01,60.57 91.39,60.56 91.78,60.57 92.16,60.53 92.55,60.5 92.94,60.51 93.32,60.49 93.71,60.46 94.09,60.47 94.48,60.47 94.87,60.44 95.25,60.43 95.64,60.4 96.03,60.38 96.41,60.37 96.8,60.34 97.18,60.33 97.57,60.31 97.96,60.28 98.34,60.28 98.73,60.3 99.11,60.3 99.5,60.24 99.89,60.24 100.27,60.25 100.66,60.26 101.04,60.24 101.43,60.23 101.82,60.24 102.2,60.21 102.59,60.19 102.98,60.17 103.36,60.18 103.75,60.18 104.13,60.15 104.52,60.17 104.91,60.17 105.29,60.16 105.68,60.14 106.06,60.13 106.45,60.12 106.84,60.15 107.22,60.14 107.61,60.12 107.99,60.11 108.38,60.09 108.77,60.09 109.15,60.08 109.54,60.09 109.93,60.06 110.31,60.05 110.7,60.04 111.08,60.04 111.47,60.05 111.86,60.05 112.24,60.04 112.63,60.04 113.01,60.03 113.4,60.01 113.79,60 114.17,60.02 114.56,60.03 114.94,59.99 115.33,59.99 115.72,59.97 116.1,59.95 116.49,59.96 116.88,59.97 117.26,59.99 117.65,59.98 118.03,59.99 118.42,59.96 118.81,59.97 119.19,59.96 119.58,59.96 119.96,59.95 120.35,59.95 120.74,59.94 121.12,59.95 121.51,59.95 121.89,59.94 122.28,59.93 122.67,59.92 123.05,59.91 123.44,59.93 123.83,59.92 124.21,59.91 124.6,59.91 124.98,59.91 125.37,59.91 125.76,59.9 126.14,59.91 126.53,59.92 126.91,59.9 127.3,59.89 127.69,59.89 128.07,59.88 128.46,59.89 128.84,59.89 129.23,59.88 129.62,59.88 130,59.89 130.39,59.89 130.78,59.88 131.16,59.87 131.55,59.85 131.93,59.85 132.32,59.86 132.71,59.87 133.09,59.85 133.48,59.85 133.86,59.85 134.25,59.86 134.64,59.86 135.02,59.84 135.41,59.84 135.79,59.84 136.18,59.83 136.57,59.83 136.95,59.84 137.34,59.84 137.73,59.83 138.11,59.83 138.5,59.82 138.88,59.82 139.27,59.82 139.66,59.81 140.04,59.83 140.43,59.84 140.81,59.82 141.2,59.82 141.59,59.82 141.97,59.83 142.36,59.83 142.74,59.82 143.13,59.82 143.52,59.82 143.9,59.82 144.29,59.81 144.68,59.8 145.06,59.79 145.45,59.79 145.83,59.79 146.22,59.8 146.61,59.8 146.99,59.8 147.38,59.79 147.76,59.79 148.15,59.8 148.54,59.78 148.92,59.78 149.31,59.78 149.69,59.78 150.08,59.78 150.47,59.77 150.85,59.78 151.24,59.78 151.63,59.78 152.01,59.77 152.4,59.77 152.78,59.77 153.17,59.78 153.56,59.77 153.94,59.78 154.33,59.77 154.71,59.77 155.1,59.77 155.49,59.77 155.87,59.77 156.26,59.77 156.64,59.77 157.03,59.76 157.42,59.77 157.8,59.77 158.19,59.77 158.58,59.76 158.96,59.75 159.35,59.76 159.73,59.75 160.12,59.75 160.51,59.76 160.89,59.75 161.28,59.75 161.66,59.76 162.05,59.77 162.44,59.76 162.82,59.76 163.21,59.75 163.59,59.74 163.98,59.74 164.37,59.73 164.75,59.74 165.14,59.74 165.53,59.75 165.91,59.75 166.3,59.74 166.68,59.74 167.07,59.74 167.46,59.74 167.84,59.74 168.23,59.73 168.61,59.73 169,59.74 169.39,59.75 169.77,59.73 170.16,59.72 170.55,59.72 170.93,59.74 171.32,59.73 171.7,59.73 172.09,59.73 172.48,59.73 172.86,59.73 173.25,59.73 173.63,59.73 174.02,59.73 174.41,59.73 174.79,59.72 175.18,59.72 175.56,59.72 175.95,59.72 176.34,59.72 176.72,59.72 177.11,59.71 177.5,59.71 177.88,59.72 178.27,59.71 178.65,59.71 179.04,59.71 179.43,59.71 179.81,59.72 180.2,59.72 180.58,59.71 180.97,59.71 181.36,59.72 181.74,59.71 182.13,59.71 182.51,59.71 182.9,59.71 183.29,59.72 183.67,59.72 184.06,59.71 184.45,59.71 184.83,59.7 185.22,59.7 185.6,59.71 185.99,59.7 186.38,59.7 186.76,59.7 187.15,59.71 187.53,59.71 187.92,59.7 188.31,59.7 188.69,59.7 189.08,59.71 189.46,59.71 189.85,59.7 190.24,59.71 190.62,59.7 191.01,59.7 191.4,59.71 191.78,59.7 192.17,59.7 192.55,59.7 192.94,59.7 193.33,59.69 193.71,59.69 194.1,59.69 194.48,59.68 194.87,59.68 195.26,59.69 195.64,59.7 196.03,59.7 196.41,59.7 196.8,59.69 197.19,59.69 197.57,59.69 197.96,59.68 198.35,59.68 198.73,59.68 199.12,59.69 199.5,59.69 199.89,59.69 200.28,59.68 200.66,59.69 201.05,59.68 201.43,59.69 201.82,59.69 202.21,59.68 202.59,59.68 202.98,59.68 203.36,59.68 203.75,59.67 204.14,59.67 204.52,59.68 204.91,59.68 205.3,59.68 205.68,59.68 206.07,59.69 206.45,59.69 206.84,59.68 207.23,59.68 207.61,59.69 208,59.69 208.38,59.68 208.77,59.67 209.16,59.67 209.54,59.68 209.93,59.68 210.31,59.67 210.7,59.68 211.09,59.68 211.47,59.68 211.86,59.68 212.25,59.67 212.63,59.67 213.02,59.68 213.4,59.68 213.79,59.67 214.18,59.67 214.56,59.67 214.95,59.66 215.33,59.68 215.72,59.68 216.11,59.68 216.49,59.67 216.88,59.67 217.26,59.67 217.65,59.68 218.04,59.67 218.42,59.66 218.81,59.66 219.2,59.67 219.58,59.67 219.97,59.67 220.35,59.66 220.74,59.66 221.13,59.66 221.51,59.67 221.9,59.68 222.28,59.68 222.67,59.67 223.06,59.66 223.44,59.66 223.83,59.66 224.21,59.67 224.6,59.66 224.99,59.67 225.37,59.66 225.76,59.66 226.15,59.66 226.53,59.66 226.92,59.66 227.3,59.67 227.69,59.67 228.08,59.66 228.46,59.66 228.85,59.66 229.23,59.66 229.62,59.66 230.01,59.65 230.39,59.67 230.78,59.67 231.16,59.66 231.55,59.66 231.94,59.66 232.32,59.67 232.71,59.67 233.1,59.66 233.48,59.67 233.87,59.66 234.25,59.66 234.64,59.66 235.03,59.66 235.41,59.66 235.8,59.66 236.18,59.66 236.57,59.66 236.96,59.66 237.34,59.65 237.73,59.65 238.11,59.66 238.5,59.66 238.89,59.66 239.27,59.66 239.66,59.66 240.05,59.65 240.43,59.65 240.82,59.65 241.2,59.65 241.59,59.65 241.98,59.66 242.36,59.66 242.75,59.65 243.13,59.65 243.52,59.65 243.91,59.65 244.29,59.65 244.68,59.65 245.06,59.65 245.45,59.66 245.84,59.66 246.22,59.66 246.61,59.65 247,59.65 247.38,59.66 247.77,59.66 248.15,59.65 248.54,59.65 248.93,59.65 249.31,59.65 249.7,59.65 250.08,59.65 250.47,59.65 250.86,59.65 251.24,59.65 251.63,59.64 252.01,59.64 252.4,59.64 252.79,59.65 253.17,59.65 253.56,59.65 253.95,59.65 254.33,59.64 254.72,59.65 255.1,59.65 255.49,59.65 255.88,59.65 256.26,59.65 256.65,59.65 257.03,59.65 257.42,59.65 257.81,59.65 258.19,59.65 258.58,59.65 258.96,59.65 259.35,59.65 259.74,59.65 260.12,59.64 260.51,59.64 260.9,59.64 261.28,59.64 261.67,59.61 262.05,59.6" stroke-dasharray="none" stroke="rgb(31,120,180)" stroke-width="0.75" opacity="1" stroke-opacity="1" fill="none"/>
          </g>
          <g id="Fig:densplot_01.xyplot.lines.group.8.panel.1.1.1">
            <polyline id="Fig:densplot_01.xyplot.lines.group.8.panel.1.1.1.1" points="64.67,59.62 65.05,60.44 65.44,68.24 65.82,99.55 66.21,152.5 66.6,180.19 66.98,172.03 67.37,138.51 67.76,111.48 68.14,95.71 68.53,87.3 68.92,82.69 69.3,79.52 69.69,76.3 70.08,74.06 70.46,72.61 70.85,71.48 71.24,70.26 71.62,69.3 72.01,68.43 72.39,67.78 72.78,67.07 73.17,66.43 73.55,66.02 73.94,65.64 74.33,65.14 74.71,64.7 75.1,64.33 75.49,64.13 75.87,63.82 76.26,63.61 76.65,63.4 77.03,63.16 77.42,62.92 77.8,62.78 78.19,62.66 78.58,62.53 78.96,62.3 79.35,62.15 79.74,62.06 80.12,62.05 80.51,61.93 80.9,61.82 81.28,61.73 81.67,61.66 82.06,61.55 82.44,61.47 82.83,61.43 83.21,61.42 83.6,61.35 83.99,61.27 84.37,61.24 84.76,61.19 85.15,61.12 85.53,61.08 85.92,61.05 86.31,61.02 86.69,60.95 87.08,60.93 87.47,60.91 87.85,60.89 88.24,60.83 88.63,60.78 89.01,60.76 89.4,60.77 89.78,60.78 90.17,60.75 90.56,60.69 90.94,60.66 91.33,60.64 91.72,60.64 92.1,60.62 92.49,60.57 92.88,60.52 93.26,60.5 93.65,60.51 94.04,60.53 94.42,60.5 94.81,60.44 95.19,60.41 95.58,60.41 95.97,60.43 96.35,60.42 96.74,60.39 97.13,60.39 97.51,60.38 97.9,60.36 98.29,60.34 98.67,60.31 99.06,60.3 99.45,60.28 99.83,60.27 100.22,60.27 100.6,60.27 100.99,60.27 101.38,60.25 101.76,60.24 102.15,60.24 102.54,60.23 102.92,60.2 103.31,60.19 103.7,60.2 104.08,60.19 104.47,60.17 104.86,60.17 105.24,60.16 105.63,60.16 106.02,60.14 106.4,60.12 106.79,60.12 107.17,60.11 107.56,60.12 107.95,60.12 108.33,60.12 108.72,60.11 109.11,60.1 109.49,60.11 109.88,60.1 110.27,60.08 110.65,60.08 111.04,60.07 111.43,60.08 111.81,60.08 112.2,60.06 112.58,60.05 112.97,60.05 113.36,60.06 113.74,60.03 114.13,60.02 114.52,60.03 114.9,60.03 115.29,60.03 115.68,60.01 116.06,59.99 116.45,59.99 116.84,60 117.22,60 117.61,60 117.99,60 118.38,59.96 118.77,59.96 119.15,59.99 119.54,59.99 119.93,59.98 120.31,59.95 120.7,59.95 121.09,59.96 121.47,59.94 121.86,59.94 122.25,59.95 122.63,59.95 123.02,59.94 123.41,59.94 123.79,59.93 124.18,59.92 124.56,59.92 124.95,59.92 125.34,59.93 125.72,59.95 126.11,59.95 126.5,59.93 126.88,59.91 127.27,59.9 127.66,59.9 128.04,59.89 128.43,59.89 128.82,59.89 129.2,59.88 129.59,59.88 129.97,59.89 130.36,59.89 130.75,59.88 131.13,59.88 131.52,59.87 131.91,59.86 132.29,59.87 132.68,59.87 133.07,59.87 133.45,59.87 133.84,59.87 134.23,59.87 134.61,59.87 135,59.86 135.38,59.85 135.77,59.84 136.16,59.84 136.54,59.85 136.93,59.85 137.32,59.85 137.7,59.85 138.09,59.85 138.48,59.85 138.86,59.84 139.25,59.83 139.64,59.83 140.02,59.83 140.41,59.83 140.79,59.82 141.18,59.82 141.57,59.83 141.95,59.82 142.34,59.83 142.73,59.82 143.11,59.81 143.5,59.82 143.89,59.82 144.27,59.81 144.66,59.81 145.05,59.8 145.43,59.8 145.82,59.81 146.21,59.81 146.59,59.8 146.98,59.79 147.36,59.79 147.75,59.79 148.14,59.8 148.52,59.8 148.91,59.8 149.3,59.8 149.68,59.79 150.07,59.79 150.46,59.79 150.84,59.79 151.23,59.79 151.62,59.79 152,59.79 152.39,59.79 152.77,59.78 153.16,59.78 153.55,59.78 153.93,59.78 154.32,59.78 154.71,59.78 155.09,59.78 155.48,59.78 155.87,59.78 156.25,59.77 156.64,59.77 157.03,59.77 157.41,59.77 157.8,59.77 158.18,59.77 158.57,59.76 158.96,59.77 159.34,59.75 159.73,59.76 160.12,59.76 160.5,59.76 160.89,59.75 161.28,59.75 161.66,59.75 162.05,59.76 162.44,59.77 162.82,59.77 163.21,59.75 163.6,59.75 163.98,59.74 164.37,59.74 164.75,59.74 165.14,59.73 165.53,59.74 165.91,59.74 166.3,59.74 166.69,59.74 167.07,59.74 167.46,59.75 167.85,59.75 168.23,59.75 168.62,59.75 169.01,59.75 169.39,59.75 169.78,59.74 170.16,59.74 170.55,59.74 170.94,59.73 171.32,59.73 171.71,59.73 172.1,59.73 172.48,59.73 172.87,59.74 173.26,59.73 173.64,59.73 174.03,59.73 174.42,59.73 174.8,59.73 175.19,59.73 175.57,59.73 175.96,59.74 176.35,59.73 176.73,59.71 177.12,59.72 177.51,59.73 177.89,59.73 178.28,59.72 178.67,59.72 179.05,59.72 179.44,59.72 179.83,59.72 180.21,59.72 180.6,59.72 180.99,59.72 181.37,59.72 181.76,59.71 182.14,59.72 182.53,59.71 182.92,59.71 183.3,59.72 183.69,59.72 184.08,59.73 184.46,59.72 184.85,59.71 185.24,59.71 185.62,59.71 186.01,59.71 186.4,59.71 186.78,59.7 187.17,59.71 187.55,59.71 187.94,59.71 188.33,59.7 188.71,59.7 189.1,59.7 189.49,59.71 189.87,59.71 190.26,59.7 190.65,59.7 191.03,59.7 191.42,59.7 191.81,59.71 192.19,59.7 192.58,59.7 192.96,59.7 193.35,59.7 193.74,59.7 194.12,59.7 194.51,59.7 194.9,59.7 195.28,59.7 195.67,59.71 196.06,59.7 196.44,59.69 196.83,59.7 197.22,59.7 197.6,59.69 197.99,59.69 198.38,59.69 198.76,59.69 199.15,59.69 199.53,59.68 199.92,59.68 200.31,59.68 200.69,59.68 201.08,59.7 201.47,59.69 201.85,59.68 202.24,59.68 202.63,59.68 203.01,59.68 203.4,59.67 203.79,59.67 204.17,59.68 204.56,59.68 204.94,59.68 205.33,59.68 205.72,59.68 206.1,59.69 206.49,59.69 206.88,59.68 207.26,59.68 207.65,59.69 208.04,59.68 208.42,59.68 208.81,59.68 209.2,59.68 209.58,59.67 209.97,59.67 210.35,59.68 210.74,59.69 211.13,59.68 211.51,59.68 211.9,59.68 212.29,59.67 212.67,59.67 213.06,59.67 213.45,59.68 213.83,59.67 214.22,59.67 214.61,59.68 214.99,59.68 215.38,59.68 215.77,59.67 216.15,59.67 216.54,59.67 216.92,59.68 217.31,59.67 217.7,59.67 218.08,59.67 218.47,59.67 218.86,59.67 219.24,59.67 219.63,59.67 220.02,59.67 220.4,59.67 220.79,59.67 221.18,59.67 221.56,59.66 221.95,59.66 222.33,59.66 222.72,59.66 223.11,59.66 223.49,59.67 223.88,59.67 224.27,59.67 224.65,59.67 225.04,59.67 225.43,59.67 225.81,59.67 226.2,59.67 226.59,59.66 226.97,59.66 227.36,59.66 227.74,59.66 228.13,59.66 228.52,59.66 228.9,59.66 229.29,59.67 229.68,59.67 230.06,59.66 230.45,59.66 230.84,59.66 231.22,59.66 231.61,59.66 232,59.66 232.38,59.66 232.77,59.66 233.16,59.66 233.54,59.66 233.93,59.66 234.31,59.67 234.7,59.67 235.09,59.67 235.47,59.67 235.86,59.66 236.25,59.66 236.63,59.66 237.02,59.65 237.41,59.65 237.79,59.66 238.18,59.66 238.57,59.66 238.95,59.65 239.34,59.65 239.72,59.66 240.11,59.66 240.5,59.66 240.88,59.66 241.27,59.66 241.66,59.66 242.04,59.67 242.43,59.66 242.82,59.65 243.2,59.65 243.59,59.65 243.98,59.65 244.36,59.65 244.75,59.66 245.13,59.66 245.52,59.65 245.91,59.65 246.29,59.66 246.68,59.67 247.07,59.66 247.45,59.65 247.84,59.65 248.23,59.65 248.61,59.65 249,59.65 249.39,59.65 249.77,59.65 250.16,59.66 250.54,59.65 250.93,59.64 251.32,59.65 251.7,59.65 252.09,59.66 252.48,59.65 252.86,59.66 253.25,59.65 253.64,59.64 254.02,59.65 254.41,59.65 254.8,59.65 255.18,59.65 255.57,59.65 255.96,59.65 256.34,59.65 256.73,59.65 257.11,59.65 257.5,59.66 257.89,59.65 258.27,59.64 258.66,59.64 259.05,59.65 259.43,59.65 259.82,59.65 260.21,59.65 260.59,59.65 260.98,59.64 261.37,59.64 261.75,59.61 262.14,59.6" stroke-dasharray="none" stroke="rgb(31,120,180)" stroke-width="0.75" opacity="1" stroke-opacity="1" fill="none"/>
          </g>
          <g id="Fig:densplot_01.xyplot.lines.group.9.panel.1.1.1">
            <polyline id="Fig:densplot_01.xyplot.lines.group.9.panel.1.1.1.1" points="64.63,59.6 65.02,60.04 65.4,65.05 65.79,88.49 66.18,137.72 66.56,178.78 66.95,175.54 67.34,142.25 67.72,114.91 68.11,99.08 68.5,89.71 68.88,83.85 69.27,80.1 69.66,77.25 70.04,74.97 70.43,73.13 70.82,71.77 71.2,70.76 71.59,69.93 71.98,68.87 72.36,68.08 72.75,67.47 73.14,66.93 73.52,66.31 73.91,65.78 74.3,65.36 74.68,65.02 75.07,64.59 75.46,64.26 75.84,64.02 76.23,63.86 76.62,63.57 77,63.3 77.39,63.07 77.78,62.98 78.16,62.8 78.55,62.62 78.94,62.45 79.32,62.33 79.71,62.16 80.09,62.08 80.48,62 80.87,61.87 81.25,61.74 81.64,61.69 82.03,61.63 82.41,61.56 82.8,61.5 83.19,61.42 83.57,61.34 83.96,61.29 84.35,61.22 84.73,61.14 85.12,61.08 85.51,61.06 85.89,61.04 86.28,61 86.67,60.96 87.05,60.96 87.44,60.91 87.83,60.85 88.21,60.81 88.6,60.79 88.99,60.79 89.37,60.77 89.76,60.76 90.15,60.72 90.53,60.68 90.92,60.64 91.31,60.62 91.69,60.63 92.08,60.62 92.47,60.58 92.85,60.54 93.24,60.53 93.62,60.52 94.01,60.5 94.4,60.48 94.78,60.47 95.17,60.47 95.56,60.45 95.94,60.43 96.33,60.42 96.72,60.41 97.1,60.37 97.49,60.34 97.88,60.35 98.26,60.35 98.65,60.33 99.04,60.3 99.42,60.3 99.81,60.31 100.2,60.31 100.58,60.29 100.97,60.28 101.36,60.27 101.74,60.27 102.13,60.25 102.52,60.23 102.9,60.22 103.29,60.22 103.68,60.2 104.06,60.18 104.45,60.19 104.84,60.19 105.22,60.17 105.61,60.16 106,60.16 106.38,60.14 106.77,60.12 107.16,60.13 107.54,60.12 107.93,60.11 108.31,60.1 108.7,60.09 109.09,60.09 109.47,60.1 109.86,60.1 110.25,60.1 110.63,60.1 111.02,60.09 111.41,60.08 111.79,60.05 112.18,60.06 112.57,60.06 112.95,60.06 113.34,60.03 113.73,60.02 114.11,60.03 114.5,60.02 114.89,60.01 115.27,60 115.66,60 116.05,59.99 116.43,59.99 116.82,60 117.21,60 117.59,59.99 117.98,59.99 118.37,59.98 118.75,59.97 119.14,59.98 119.53,59.97 119.91,59.98 120.3,59.98 120.69,59.98 121.07,59.95 121.46,59.94 121.84,59.94 122.23,59.95 122.62,59.93 123,59.94 123.39,59.95 123.78,59.95 124.16,59.94 124.55,59.93 124.94,59.93 125.32,59.94 125.71,59.93 126.1,59.93 126.48,59.93 126.87,59.92 127.26,59.91 127.64,59.91 128.03,59.91 128.42,59.9 128.8,59.89 129.19,59.89 129.58,59.89 129.96,59.89 130.35,59.89 130.74,59.89 131.12,59.89 131.51,59.88 131.9,59.88 132.28,59.87 132.67,59.87 133.06,59.87 133.44,59.87 133.83,59.86 134.22,59.86 134.6,59.86 134.99,59.87 135.38,59.87 135.76,59.85 136.15,59.85 136.53,59.85 136.92,59.84 137.31,59.84 137.69,59.84 138.08,59.85 138.47,59.83 138.85,59.83 139.24,59.83 139.63,59.83 140.01,59.83 140.4,59.83 140.79,59.83 141.17,59.83 141.56,59.84 141.95,59.83 142.33,59.83 142.72,59.83 143.11,59.83 143.49,59.84 143.88,59.83 144.27,59.82 144.65,59.81 145.04,59.82 145.43,59.83 145.81,59.82 146.2,59.81 146.59,59.81 146.97,59.82 147.36,59.82 147.75,59.81 148.13,59.81 148.52,59.8 148.91,59.81 149.29,59.8 149.68,59.8 150.07,59.79 150.45,59.79 150.84,59.8 151.22,59.8 151.61,59.79 152,59.79 152.38,59.78 152.77,59.78 153.16,59.78 153.54,59.78 153.93,59.78 154.32,59.77 154.7,59.78 155.09,59.78 155.48,59.78 155.86,59.78 156.25,59.77 156.64,59.77 157.02,59.77 157.41,59.77 157.8,59.77 158.18,59.77 158.57,59.77 158.96,59.77 159.34,59.76 159.73,59.77 160.12,59.77 160.5,59.76 160.89,59.76 161.28,59.75 161.66,59.76 162.05,59.77 162.44,59.77 162.82,59.76 163.21,59.75 163.6,59.75 163.98,59.75 164.37,59.76 164.75,59.74 165.14,59.75 165.53,59.74 165.91,59.74 166.3,59.74 166.69,59.75 167.07,59.75 167.46,59.75 167.85,59.75 168.23,59.75 168.62,59.76 169.01,59.75 169.39,59.73 169.78,59.73 170.17,59.74 170.55,59.73 170.94,59.73 171.33,59.74 171.71,59.73 172.1,59.72 172.49,59.72 172.87,59.73 173.26,59.73 173.65,59.74 174.03,59.74 174.42,59.73 174.81,59.73 175.19,59.73 175.58,59.72 175.97,59.73 176.35,59.73 176.74,59.73 177.13,59.73 177.51,59.72 177.9,59.72 178.29,59.72 178.67,59.72 179.06,59.72 179.44,59.72 179.83,59.72 180.22,59.72 180.6,59.72 180.99,59.72 181.38,59.72 181.76,59.71 182.15,59.71 182.54,59.71 182.92,59.72 183.31,59.72 183.7,59.73 184.08,59.72 184.47,59.72 184.86,59.72 185.24,59.72 185.63,59.71 186.02,59.71 186.4,59.7 186.79,59.7 187.18,59.7 187.56,59.7 187.95,59.7 188.34,59.7 188.72,59.7 189.11,59.7 189.5,59.7 189.88,59.7 190.27,59.7 190.66,59.69 191.04,59.7 191.43,59.7 191.82,59.7 192.2,59.7 192.59,59.7 192.98,59.7 193.36,59.71 193.75,59.71 194.13,59.7 194.52,59.7 194.91,59.7 195.29,59.71 195.68,59.7 196.07,59.7 196.45,59.69 196.84,59.69 197.23,59.7 197.61,59.7 198,59.69 198.39,59.69 198.77,59.7 199.16,59.7 199.55,59.7 199.93,59.7 200.32,59.7 200.71,59.7 201.09,59.69 201.48,59.69 201.87,59.69 202.25,59.69 202.64,59.69 203.03,59.69 203.41,59.69 203.8,59.69 204.19,59.69 204.57,59.68 204.96,59.69 205.35,59.69 205.73,59.68 206.12,59.69 206.51,59.69 206.89,59.69 207.28,59.69 207.66,59.69 208.05,59.69 208.44,59.69 208.82,59.69 209.21,59.69 209.6,59.69 209.98,59.68 210.37,59.68 210.76,59.67 211.14,59.68 211.53,59.67 211.92,59.67 212.3,59.69 212.69,59.7 213.08,59.69 213.46,59.68 213.85,59.68 214.24,59.68 214.62,59.68 215.01,59.68 215.4,59.68 215.78,59.69 216.17,59.68 216.56,59.67 216.94,59.67 217.33,59.67 217.72,59.67 218.1,59.68 218.49,59.68 218.88,59.67 219.26,59.67 219.65,59.67 220.04,59.67 220.42,59.67 220.81,59.67 221.2,59.67 221.58,59.67 221.97,59.67 222.35,59.67 222.74,59.67 223.13,59.67 223.51,59.67 223.9,59.67 224.29,59.66 224.67,59.66 225.06,59.67 225.45,59.67 225.83,59.66 226.22,59.66 226.61,59.66 226.99,59.66 227.38,59.67 227.77,59.67 228.15,59.67 228.54,59.67 228.93,59.67 229.31,59.67 229.7,59.67 230.09,59.67 230.47,59.67 230.86,59.67 231.25,59.66 231.63,59.67 232.02,59.67 232.41,59.67 232.79,59.66 233.18,59.66 233.57,59.67 233.95,59.67 234.34,59.67 234.73,59.66 235.11,59.66 235.5,59.66 235.88,59.65 236.27,59.65 236.66,59.66 237.04,59.66 237.43,59.66 237.82,59.66 238.2,59.66 238.59,59.67 238.98,59.66 239.36,59.66 239.75,59.66 240.14,59.65 240.52,59.65 240.91,59.66 241.3,59.66 241.68,59.66 242.07,59.66 242.46,59.66 242.84,59.66 243.23,59.65 243.62,59.65 244,59.65 244.39,59.65 244.78,59.66 245.16,59.66 245.55,59.66 245.94,59.66 246.32,59.65 246.71,59.65 247.1,59.65 247.48,59.65 247.87,59.65 248.26,59.66 248.64,59.65 249.03,59.65 249.42,59.65 249.8,59.64 250.19,59.65 250.57,59.65 250.96,59.65 251.35,59.65 251.73,59.66 252.12,59.66 252.51,59.66 252.89,59.66 253.28,59.65 253.67,59.65 254.05,59.65 254.44,59.65 254.83,59.66 255.21,59.66 255.6,59.65 255.99,59.65 256.37,59.65 256.76,59.65 257.15,59.65 257.53,59.65 257.92,59.65 258.31,59.65 258.69,59.65 259.08,59.65 259.47,59.64 259.85,59.64 260.24,59.65 260.63,59.65 261.01,59.64 261.4,59.63 261.79,59.61 262.17,59.6" stroke-dasharray="none" stroke="rgb(31,120,180)" stroke-width="0.75" opacity="1" stroke-opacity="1" fill="none"/>
          </g>
          <g id="Fig:densplot_01.xyplot.lines.group.10.panel.1.1.1">
            <polyline id="Fig:densplot_01.xyplot.lines.group.10.panel.1.1.1.1" points="64.82,59.6 65.2,59.77 65.59,64.37 65.98,100.9 66.36,174.28 66.75,218.08 67.13,189.27 67.52,140.39 67.91,110.87 68.29,96.43 68.68,88.4 69.06,83.41 69.45,79.82 69.83,77.12 70.22,74.9 70.61,73.03 70.99,71.58 71.38,70.54 71.76,69.52 72.15,68.5 72.54,67.73 72.92,67.16 73.31,66.56 73.69,65.96 74.08,65.43 74.46,65.01 74.85,64.62 75.24,64.23 75.62,63.97 76.01,63.79 76.39,63.55 76.78,63.23 77.17,62.95 77.55,62.77 77.94,62.62 78.32,62.49 78.71,62.37 79.09,62.2 79.48,62.04 79.87,61.91 80.25,61.84 80.64,61.77 81.02,61.68 81.41,61.58 81.8,61.51 82.18,61.44 82.57,61.37 82.95,61.3 83.34,61.21 83.72,61.14 84.11,61.08 84.5,61.01 84.88,60.98 85.27,60.98 85.65,60.92 86.04,60.92 86.43,60.86 86.81,60.81 87.2,60.79 87.58,60.79 87.97,60.75 88.35,60.74 88.74,60.71 89.13,60.67 89.51,60.66 89.9,60.68 90.28,60.6 90.67,60.56 91.06,60.51 91.44,60.46 91.83,60.45 92.21,60.47 92.6,60.46 92.99,60.44 93.37,60.41 93.76,60.37 94.14,60.36 94.53,60.35 94.91,60.34 95.3,60.32 95.69,60.31 96.07,60.29 96.46,60.29 96.84,60.26 97.23,60.26 97.62,60.23 98,60.23 98.39,60.23 98.77,60.23 99.16,60.2 99.54,60.19 99.93,60.18 100.32,60.17 100.7,60.13 101.09,60.14 101.47,60.14 101.86,60.15 102.25,60.12 102.63,60.12 103.02,60.13 103.4,60.11 103.79,60.09 104.17,60.08 104.56,60.1 104.95,60.07 105.33,60.09 105.72,60.09 106.1,60.07 106.49,60.05 106.88,60.05 107.26,60.06 107.65,60.04 108.03,60.01 108.42,60.01 108.8,60.01 109.19,60.01 109.58,60 109.96,59.98 110.35,59.99 110.73,60 111.12,59.97 111.51,59.97 111.89,59.95 112.28,59.95 112.66,59.96 113.05,59.95 113.43,59.93 113.82,59.96 114.21,59.97 114.59,59.95 114.98,59.93 115.36,59.92 115.75,59.89 116.14,59.89 116.52,59.91 116.91,59.92 117.29,59.92 117.68,59.9 118.07,59.89 118.45,59.89 118.84,59.89 119.22,59.88 119.61,59.91 119.99,59.91 120.38,59.89 120.77,59.88 121.15,59.87 121.54,59.87 121.92,59.87 122.31,59.87 122.7,59.85 123.08,59.86 123.47,59.88 123.85,59.89 124.24,59.88 124.62,59.87 125.01,59.87 125.4,59.85 125.78,59.85 126.17,59.84 126.55,59.83 126.94,59.83 127.33,59.82 127.71,59.83 128.1,59.83 128.48,59.82 128.87,59.81 129.25,59.81 129.64,59.82 130.03,59.82 130.41,59.81 130.8,59.81 131.18,59.81 131.57,59.82 131.96,59.83 132.34,59.81 132.73,59.8 133.11,59.81 133.5,59.8 133.88,59.79 134.27,59.79 134.66,59.78 135.04,59.79 135.43,59.8 135.81,59.79 136.2,59.78 136.59,59.78 136.97,59.78 137.36,59.78 137.74,59.78 138.13,59.78 138.51,59.78 138.9,59.78 139.29,59.78 139.67,59.78 140.06,59.77 140.44,59.77 140.83,59.77 141.22,59.77 141.6,59.77 141.99,59.77 142.37,59.77 142.76,59.77 143.15,59.76 143.53,59.76 143.92,59.77 144.3,59.76 144.69,59.76 145.07,59.75 145.46,59.76 145.85,59.75 146.23,59.74 146.62,59.76 147,59.76 147.39,59.75 147.78,59.74 148.16,59.74 148.55,59.73 148.93,59.74 149.32,59.74 149.7,59.73 150.09,59.73 150.48,59.72 150.86,59.73 151.25,59.73 151.63,59.74 152.02,59.74 152.41,59.73 152.79,59.73 153.18,59.73 153.56,59.72 153.95,59.73 154.33,59.74 154.72,59.73 155.11,59.73 155.49,59.73 155.88,59.73 156.26,59.73 156.65,59.73 157.04,59.73 157.42,59.74 157.81,59.72 158.19,59.71 158.58,59.72 158.96,59.71 159.35,59.71 159.74,59.71 160.12,59.73 160.51,59.72 160.89,59.71 161.28,59.71 161.67,59.72 162.05,59.73 162.44,59.72 162.82,59.73 163.21,59.71 163.59,59.71 163.98,59.7 164.37,59.71 164.75,59.71 165.14,59.71 165.52,59.7 165.91,59.7 166.3,59.7 166.68,59.71 167.07,59.71 167.45,59.7 167.84,59.7 168.23,59.7 168.61,59.7 169,59.7 169.38,59.69 169.77,59.7 170.15,59.7 170.54,59.7 170.93,59.7 171.31,59.69 171.7,59.7 172.08,59.7 172.47,59.7 172.86,59.69 173.24,59.7 173.63,59.69 174.01,59.69 174.4,59.68 174.78,59.68 175.17,59.68 175.56,59.69 175.94,59.69 176.33,59.69 176.71,59.69 177.1,59.7 177.49,59.69 177.87,59.69 178.26,59.69 178.64,59.69 179.03,59.69 179.41,59.68 179.8,59.67 180.19,59.68 180.57,59.69 180.96,59.69 181.34,59.69 181.73,59.68 182.12,59.68 182.5,59.68 182.89,59.69 183.27,59.68 183.66,59.67 184.04,59.67 184.43,59.68 184.82,59.69 185.2,59.69 185.59,59.68 185.97,59.68 186.36,59.67 186.75,59.67 187.13,59.68 187.52,59.68 187.9,59.67 188.29,59.67 188.67,59.67 189.06,59.68 189.45,59.67 189.83,59.67 190.22,59.68 190.6,59.69 190.99,59.68 191.38,59.66 191.76,59.67 192.15,59.67 192.53,59.66 192.92,59.66 193.3,59.66 193.69,59.66 194.08,59.66 194.46,59.66 194.85,59.67 195.23,59.68 195.62,59.68 196.01,59.67 196.39,59.67 196.78,59.66 197.16,59.66 197.55,59.66 197.94,59.66 198.32,59.67 198.71,59.67 199.09,59.66 199.48,59.66 199.86,59.66 200.25,59.66 200.64,59.67 201.02,59.67 201.41,59.66 201.79,59.66 202.18,59.67 202.57,59.67 202.95,59.67 203.34,59.67 203.72,59.67 204.11,59.67 204.49,59.66 204.88,59.66 205.27,59.67 205.65,59.66 206.04,59.66 206.42,59.67 206.81,59.67 207.2,59.67 207.58,59.66 207.97,59.66 208.35,59.66 208.74,59.66 209.12,59.66 209.51,59.66 209.9,59.65 210.28,59.65 210.67,59.65 211.05,59.65 211.44,59.66 211.83,59.66 212.21,59.65 212.6,59.65 212.98,59.65 213.37,59.65 213.75,59.65 214.14,59.64 214.53,59.65 214.91,59.65 215.3,59.65 215.68,59.65 216.07,59.65 216.46,59.65 216.84,59.66 217.23,59.65 217.61,59.65 218,59.65 218.38,59.65 218.77,59.65 219.16,59.66 219.54,59.65 219.93,59.65 220.31,59.65 220.7,59.66 221.09,59.65 221.47,59.65 221.86,59.65 222.24,59.65 222.63,59.65 223.02,59.65 223.4,59.65 223.79,59.65 224.17,59.65 224.56,59.65 224.94,59.64 225.33,59.64 225.72,59.64 226.1,59.64 226.49,59.64 226.87,59.64 227.26,59.64 227.65,59.64 228.03,59.64 228.42,59.65 228.8,59.64 229.19,59.64 229.57,59.64 229.96,59.64 230.35,59.63 230.73,59.64 231.12,59.64 231.5,59.64 231.89,59.65 232.28,59.65 232.66,59.65 233.05,59.65 233.43,59.65 233.82,59.64 234.2,59.64 234.59,59.64 234.98,59.65 235.36,59.64 235.75,59.64 236.13,59.64 236.52,59.64 236.91,59.64 237.29,59.64 237.68,59.64 238.06,59.64 238.45,59.63 238.83,59.64 239.22,59.63 239.61,59.63 239.99,59.64 240.38,59.64 240.76,59.64 241.15,59.64 241.54,59.63 241.92,59.63 242.31,59.64 242.69,59.63 243.08,59.64 243.46,59.64 243.85,59.63 244.24,59.63 244.62,59.64 245.01,59.64 245.39,59.64 245.78,59.64 246.17,59.63 246.55,59.63 246.94,59.64 247.32,59.64 247.71,59.64 248.1,59.64 248.48,59.64 248.87,59.63 249.25,59.63 249.64,59.64 250.02,59.64 250.41,59.64 250.8,59.64 251.18,59.63 251.57,59.63 251.95,59.63 252.34,59.64 252.73,59.64 253.11,59.63 253.5,59.63 253.88,59.63 254.27,59.63 254.65,59.63 255.04,59.63 255.43,59.63 255.81,59.63 256.2,59.63 256.58,59.63 256.97,59.63 257.36,59.63 257.74,59.64 258.13,59.64 258.51,59.63 258.9,59.63 259.28,59.63 259.67,59.63 260.06,59.63 260.44,59.63 260.83,59.63 261.21,59.63 261.6,59.61 261.99,59.6" stroke-dasharray="none" stroke="rgb(31,120,180)" stroke-width="0.75" opacity="1" stroke-opacity="1" fill="none"/>
          </g>
          <g id="Fig:densplot_01.xyplot.lines.group.11.panel.1.1.1">
            <polyline id="Fig:densplot_01.xyplot.lines.group.11.panel.1.1.1.1" points="64.86,59.6 65.24,59.71 65.63,62.64 66.02,85.23 66.4,136.1 66.79,171.95 67.17,186.49 67.56,158.96 67.95,122.93 68.33,102.15 68.72,91 69.1,85.03 69.49,80.24 69.88,76.81 70.26,74.63 70.65,73.14 71.03,71.39 71.42,70.18 71.81,69.31 72.19,68.61 72.58,67.72 72.96,66.95 73.35,66.4 73.74,65.95 74.12,65.4 74.51,64.95 74.89,64.69 75.28,64.39 75.67,64.03 76.05,63.73 76.44,63.49 76.82,63.25 77.21,62.94 77.6,62.75 77.98,62.68 78.37,62.6 78.75,62.4 79.14,62.25 79.52,62.14 79.91,62.05 80.3,61.94 80.68,61.86 81.07,61.77 81.45,61.64 81.84,61.55 82.23,61.5 82.61,61.48 83,61.41 83.38,61.33 83.77,61.28 84.16,61.23 84.54,61.18 84.93,61.1 85.31,61.03 85.7,61.02 86.09,60.99 86.47,60.94 86.86,60.91 87.24,60.9 87.63,60.86 88.02,60.81 88.4,60.79 88.79,60.81 89.17,60.79 89.56,60.74 89.95,60.72 90.33,60.69 90.72,60.63 91.1,60.59 91.49,60.56 91.88,60.57 92.26,60.56 92.65,60.52 93.03,60.51 93.42,60.52 93.81,60.52 94.19,60.49 94.58,60.47 94.96,60.45 95.35,60.41 95.74,60.38 96.12,60.4 96.51,60.4 96.89,60.38 97.28,60.34 97.67,60.33 98.05,60.34 98.44,60.33 98.82,60.31 99.21,60.29 99.6,60.27 99.98,60.26 100.37,60.23 100.75,60.24 101.14,60.25 101.53,60.24 101.91,60.2 102.3,60.19 102.68,60.19 103.07,60.17 103.45,60.16 103.84,60.17 104.23,60.18 104.61,60.17 105,60.16 105.38,60.15 105.77,60.15 106.16,60.14 106.54,60.13 106.93,60.14 107.31,60.16 107.7,60.12 108.09,60.1 108.47,60.07 108.86,60.08 109.24,60.09 109.63,60.09 110.02,60.07 110.4,60.06 110.79,60.05 111.17,60.05 111.56,60.03 111.95,60.04 112.33,60.06 112.72,60.06 113.1,60.03 113.49,60.01 113.88,60.02 114.26,60.02 114.65,60 115.03,59.99 115.42,59.97 115.81,59.96 116.19,59.99 116.58,59.99 116.96,59.99 117.35,59.98 117.74,59.97 118.12,59.97 118.51,59.96 118.89,59.97 119.28,59.97 119.67,59.95 120.05,59.95 120.44,59.94 120.82,59.93 121.21,59.94 121.6,59.94 121.98,59.93 122.37,59.92 122.75,59.9 123.14,59.91 123.53,59.92 123.91,59.91 124.3,59.92 124.68,59.92 125.07,59.92 125.45,59.93 125.84,59.93 126.23,59.92 126.61,59.9 127,59.9 127.38,59.91 127.77,59.9 128.16,59.88 128.54,59.87 128.93,59.87 129.31,59.87 129.7,59.87 130.09,59.87 130.47,59.87 130.86,59.86 131.24,59.85 131.63,59.86 132.02,59.86 132.4,59.87 132.79,59.86 133.17,59.86 133.56,59.86 133.95,59.85 134.33,59.85 134.72,59.84 135.1,59.84 135.49,59.83 135.88,59.83 136.26,59.84 136.65,59.83 137.03,59.83 137.42,59.83 137.81,59.83 138.19,59.83 138.58,59.83 138.96,59.81 139.35,59.8 139.74,59.82 140.12,59.82 140.51,59.81 140.89,59.82 141.28,59.83 141.67,59.83 142.05,59.82 142.44,59.81 142.82,59.81 143.21,59.82 143.6,59.81 143.98,59.81 144.37,59.81 144.75,59.8 145.14,59.8 145.53,59.81 145.91,59.81 146.3,59.8 146.68,59.79 147.07,59.79 147.46,59.78 147.84,59.78 148.23,59.78 148.61,59.78 149,59.79 149.38,59.78 149.77,59.78 150.16,59.78 150.54,59.78 150.93,59.78 151.31,59.78 151.7,59.78 152.09,59.77 152.47,59.76 152.86,59.76 153.24,59.77 153.63,59.77 154.02,59.78 154.4,59.77 154.79,59.76 155.17,59.77 155.56,59.77 155.95,59.77 156.33,59.76 156.72,59.75 157.1,59.75 157.49,59.76 157.88,59.76 158.26,59.75 158.65,59.75 159.03,59.76 159.42,59.76 159.81,59.75 160.19,59.74 160.58,59.75 160.96,59.75 161.35,59.75 161.74,59.75 162.12,59.75 162.51,59.76 162.89,59.75 163.28,59.74 163.67,59.75 164.05,59.75 164.44,59.75 164.82,59.74 165.21,59.75 165.6,59.75 165.98,59.73 166.37,59.73 166.75,59.74 167.14,59.74 167.53,59.74 167.91,59.74 168.3,59.73 168.68,59.75 169.07,59.74 169.46,59.73 169.84,59.72 170.23,59.73 170.61,59.71 171,59.72 171.39,59.71 171.77,59.71 172.16,59.71 172.54,59.72 172.93,59.73 173.31,59.74 173.7,59.73 174.09,59.73 174.47,59.72 174.86,59.73 175.24,59.73 175.63,59.73 176.02,59.71 176.4,59.71 176.79,59.71 177.17,59.71 177.56,59.72 177.95,59.72 178.33,59.72 178.72,59.71 179.1,59.71 179.49,59.71 179.88,59.72 180.26,59.71 180.65,59.71 181.03,59.71 181.42,59.71 181.81,59.71 182.19,59.72 182.58,59.71 182.96,59.7 183.35,59.7 183.74,59.7 184.12,59.71 184.51,59.71 184.89,59.7 185.28,59.7 185.67,59.7 186.05,59.7 186.44,59.7 186.82,59.7 187.21,59.71 187.6,59.7 187.98,59.7 188.37,59.69 188.75,59.69 189.14,59.69 189.53,59.69 189.91,59.69 190.3,59.7 190.68,59.7 191.07,59.69 191.46,59.69 191.84,59.69 192.23,59.69 192.61,59.69 193,59.69 193.39,59.69 193.77,59.69 194.16,59.69 194.54,59.69 194.93,59.69 195.32,59.69 195.7,59.69 196.09,59.69 196.47,59.68 196.86,59.69 197.24,59.69 197.63,59.69 198.02,59.7 198.4,59.7 198.79,59.69 199.17,59.69 199.56,59.68 199.95,59.68 200.33,59.68 200.72,59.68 201.1,59.69 201.49,59.68 201.88,59.69 202.26,59.69 202.65,59.69 203.03,59.68 203.42,59.68 203.81,59.69 204.19,59.69 204.58,59.68 204.96,59.68 205.35,59.69 205.74,59.68 206.12,59.68 206.51,59.68 206.89,59.67 207.28,59.67 207.67,59.68 208.05,59.68 208.44,59.68 208.82,59.68 209.21,59.67 209.6,59.67 209.98,59.67 210.37,59.68 210.75,59.68 211.14,59.67 211.53,59.67 211.91,59.67 212.3,59.66 212.68,59.67 213.07,59.67 213.46,59.66 213.84,59.67 214.23,59.67 214.61,59.67 215,59.67 215.39,59.66 215.77,59.66 216.16,59.67 216.54,59.67 216.93,59.67 217.32,59.66 217.7,59.66 218.09,59.67 218.47,59.67 218.86,59.67 219.25,59.66 219.63,59.66 220.02,59.67 220.4,59.67 220.79,59.67 221.17,59.67 221.56,59.67 221.95,59.67 222.33,59.67 222.72,59.66 223.1,59.66 223.49,59.66 223.88,59.67 224.26,59.67 224.65,59.67 225.03,59.67 225.42,59.67 225.81,59.66 226.19,59.66 226.58,59.66 226.96,59.66 227.35,59.66 227.74,59.67 228.12,59.67 228.51,59.67 228.89,59.66 229.28,59.66 229.67,59.66 230.05,59.66 230.44,59.66 230.82,59.66 231.21,59.66 231.6,59.67 231.98,59.66 232.37,59.66 232.75,59.66 233.14,59.66 233.53,59.66 233.91,59.66 234.3,59.66 234.68,59.66 235.07,59.66 235.46,59.66 235.84,59.65 236.23,59.66 236.61,59.66 237,59.65 237.39,59.65 237.77,59.66 238.16,59.65 238.54,59.65 238.93,59.65 239.32,59.65 239.7,59.65 240.09,59.65 240.47,59.66 240.86,59.66 241.25,59.66 241.63,59.65 242.02,59.65 242.4,59.65 242.79,59.65 243.18,59.65 243.56,59.65 243.95,59.66 244.33,59.66 244.72,59.65 245.1,59.65 245.49,59.65 245.88,59.65 246.26,59.65 246.65,59.65 247.03,59.65 247.42,59.65 247.81,59.64 248.19,59.64 248.58,59.65 248.96,59.65 249.35,59.65 249.74,59.65 250.12,59.65 250.51,59.65 250.89,59.65 251.28,59.65 251.67,59.65 252.05,59.65 252.44,59.65 252.82,59.65 253.21,59.65 253.6,59.64 253.98,59.64 254.37,59.64 254.75,59.65 255.14,59.65 255.53,59.65 255.91,59.65 256.3,59.64 256.68,59.64 257.07,59.64 257.46,59.65 257.84,59.65 258.23,59.65 258.61,59.65 259,59.64 259.39,59.65 259.77,59.64 260.16,59.64 260.54,59.64 260.93,59.64 261.32,59.63 261.7,59.61 262.09,59.6" stroke-dasharray="none" stroke="rgb(31,120,180)" stroke-width="0.75" opacity="1" stroke-opacity="1" fill="none"/>
          </g>
          <g id="Fig:densplot_01.xyplot.lines.group.12.panel.1.1.1">
            <polyline id="Fig:densplot_01.xyplot.lines.group.12.panel.1.1.1.1" points="64.93,59.62 65.31,60.66 65.7,74.45 66.08,129.37 66.47,190.94 66.85,201.06 67.24,164.19 67.63,126.87 68.01,103.77 68.4,91.51 68.78,85.08 69.17,81.25 69.55,77.86 69.94,75.1 70.33,73.24 70.71,72.05 71.1,70.66 71.48,69.54 71.87,68.62 72.25,67.86 72.64,67.08 73.03,66.45 73.41,66.01 73.8,65.62 74.18,65.12 74.57,64.66 74.95,64.34 75.34,64.07 75.73,63.79 76.11,63.52 76.5,63.31 76.88,63.11 77.27,62.84 77.65,62.63 78.04,62.54 78.43,62.4 78.81,62.23 79.2,62.12 79.58,62.01 79.97,61.91 80.35,61.81 80.74,61.7 81.13,61.61 81.51,61.54 81.9,61.46 82.28,61.39 82.67,61.34 83.05,61.28 83.44,61.2 83.83,61.15 84.21,61.13 84.6,61.09 84.98,61.02 85.37,60.99 85.75,60.97 86.14,60.93 86.53,60.9 86.91,60.88 87.3,60.86 87.68,60.82 88.07,60.79 88.45,60.76 88.84,60.72 89.23,60.69 89.61,60.68 90,60.68 90.38,60.62 90.77,60.55 91.15,60.52 91.54,60.53 91.93,60.55 92.31,60.54 92.7,60.5 93.08,60.49 93.47,60.48 93.85,60.43 94.24,60.42 94.63,60.41 95.01,60.41 95.4,60.37 95.78,60.37 96.17,60.37 96.55,60.38 96.94,60.31 97.32,60.28 97.71,60.31 98.1,60.31 98.48,60.28 98.87,60.24 99.25,60.23 99.64,60.24 100.02,60.21 100.41,60.21 100.8,60.22 101.18,60.19 101.57,60.17 101.95,60.18 102.34,60.18 102.72,60.19 103.11,60.15 103.5,60.14 103.88,60.15 104.27,60.13 104.65,60.1 105.04,60.1 105.42,60.13 105.81,60.11 106.2,60.09 106.58,60.11 106.97,60.12 107.35,60.1 107.74,60.07 108.12,60.06 108.51,60.07 108.9,60.05 109.28,60.05 109.67,60.04 110.05,60.06 110.44,60.03 110.82,60 111.21,60.02 111.6,60.02 111.98,60 112.37,60 112.75,60.02 113.14,60.03 113.52,60.01 113.91,59.99 114.3,59.98 114.68,59.99 115.07,59.97 115.45,59.96 115.84,59.95 116.22,59.94 116.61,59.96 117,59.95 117.38,59.95 117.77,59.94 118.15,59.94 118.54,59.95 118.92,59.95 119.31,59.94 119.7,59.93 120.08,59.91 120.47,59.93 120.85,59.92 121.24,59.92 121.62,59.9 122.01,59.91 122.4,59.92 122.78,59.9 123.17,59.9 123.55,59.9 123.94,59.9 124.32,59.88 124.71,59.87 125.1,59.88 125.48,59.88 125.87,59.89 126.25,59.9 126.64,59.88 127.02,59.87 127.41,59.86 127.8,59.85 128.18,59.85 128.57,59.85 128.95,59.85 129.34,59.85 129.72,59.85 130.11,59.84 130.5,59.84 130.88,59.85 131.27,59.85 131.65,59.85 132.04,59.84 132.42,59.84 132.81,59.83 133.2,59.82 133.58,59.83 133.97,59.83 134.35,59.83 134.74,59.83 135.12,59.82 135.51,59.81 135.9,59.81 136.28,59.81 136.67,59.81 137.05,59.81 137.44,59.81 137.82,59.82 138.21,59.81 138.6,59.82 138.98,59.81 139.37,59.79 139.75,59.79 140.14,59.81 140.52,59.8 140.91,59.79 141.29,59.79 141.68,59.8 142.07,59.8 142.45,59.79 142.84,59.8 143.22,59.8 143.61,59.8 143.99,59.78 144.38,59.78 144.77,59.77 145.15,59.78 145.54,59.78 145.92,59.78 146.31,59.79 146.69,59.78 147.08,59.78 147.47,59.78 147.85,59.77 148.24,59.76 148.62,59.77 149.01,59.78 149.39,59.78 149.78,59.77 150.17,59.76 150.55,59.76 150.94,59.76 151.32,59.75 151.71,59.76 152.09,59.76 152.48,59.76 152.87,59.75 153.25,59.75 153.64,59.75 154.02,59.75 154.41,59.75 154.79,59.75 155.18,59.75 155.57,59.74 155.95,59.74 156.34,59.76 156.72,59.77 157.11,59.76 157.49,59.74 157.88,59.74 158.27,59.73 158.65,59.74 159.04,59.74 159.42,59.74 159.81,59.73 160.19,59.74 160.58,59.74 160.97,59.74 161.35,59.74 161.74,59.73 162.12,59.73 162.51,59.75 162.89,59.73 163.28,59.72 163.67,59.73 164.05,59.72 164.44,59.72 164.82,59.73 165.21,59.73 165.59,59.73 165.98,59.72 166.37,59.73 166.75,59.73 167.14,59.72 167.52,59.71 167.91,59.71 168.29,59.72 168.68,59.72 169.07,59.72 169.45,59.72 169.84,59.73 170.22,59.72 170.61,59.7 170.99,59.69 171.38,59.71 171.77,59.71 172.15,59.71 172.54,59.7 172.92,59.72 173.31,59.72 173.69,59.71 174.08,59.71 174.47,59.72 174.85,59.7 175.24,59.7 175.62,59.7 176.01,59.7 176.39,59.7 176.78,59.7 177.17,59.69 177.55,59.7 177.94,59.7 178.32,59.69 178.71,59.69 179.09,59.7 179.48,59.7 179.87,59.7 180.25,59.7 180.64,59.69 181.02,59.69 181.41,59.7 181.79,59.7 182.18,59.7 182.57,59.7 182.95,59.7 183.34,59.71 183.72,59.7 184.11,59.7 184.49,59.69 184.88,59.69 185.26,59.7 185.65,59.7 186.04,59.7 186.42,59.7 186.81,59.7 187.19,59.69 187.58,59.69 187.96,59.68 188.35,59.68 188.74,59.68 189.12,59.68 189.51,59.67 189.89,59.68 190.28,59.69 190.66,59.69 191.05,59.69 191.44,59.68 191.82,59.69 192.21,59.69 192.59,59.69 192.98,59.68 193.36,59.68 193.75,59.68 194.14,59.68 194.52,59.68 194.91,59.68 195.29,59.69 195.68,59.68 196.06,59.68 196.45,59.69 196.84,59.69 197.22,59.68 197.61,59.68 197.99,59.68 198.38,59.68 198.76,59.69 199.15,59.69 199.54,59.68 199.92,59.67 200.31,59.67 200.69,59.68 201.08,59.68 201.46,59.68 201.85,59.68 202.24,59.67 202.62,59.67 203.01,59.67 203.39,59.67 203.78,59.67 204.16,59.67 204.55,59.66 204.94,59.67 205.32,59.67 205.71,59.68 206.09,59.68 206.48,59.67 206.86,59.67 207.25,59.67 207.64,59.67 208.02,59.67 208.41,59.67 208.79,59.67 209.18,59.66 209.56,59.67 209.95,59.66 210.34,59.67 210.72,59.66 211.11,59.66 211.49,59.66 211.88,59.66 212.26,59.66 212.65,59.66 213.04,59.67 213.42,59.67 213.81,59.67 214.19,59.66 214.58,59.66 214.96,59.66 215.35,59.67 215.74,59.67 216.12,59.67 216.51,59.66 216.89,59.66 217.28,59.66 217.66,59.66 218.05,59.66 218.44,59.66 218.82,59.67 219.21,59.66 219.59,59.66 219.98,59.66 220.36,59.66 220.75,59.66 221.14,59.66 221.52,59.66 221.91,59.65 222.29,59.66 222.68,59.65 223.06,59.66 223.45,59.65 223.84,59.65 224.22,59.65 224.61,59.66 224.99,59.66 225.38,59.65 225.76,59.65 226.15,59.66 226.54,59.66 226.92,59.65 227.31,59.65 227.69,59.65 228.08,59.65 228.46,59.65 228.85,59.65 229.23,59.66 229.62,59.66 230.01,59.66 230.39,59.65 230.78,59.65 231.16,59.65 231.55,59.65 231.93,59.66 232.32,59.66 232.71,59.65 233.09,59.65 233.48,59.65 233.86,59.65 234.25,59.65 234.63,59.65 235.02,59.65 235.41,59.64 235.79,59.64 236.18,59.64 236.56,59.64 236.95,59.64 237.33,59.65 237.72,59.65 238.11,59.65 238.49,59.65 238.88,59.65 239.26,59.65 239.65,59.65 240.03,59.65 240.42,59.65 240.81,59.65 241.19,59.65 241.58,59.65 241.96,59.65 242.35,59.64 242.73,59.64 243.12,59.64 243.51,59.64 243.89,59.64 244.28,59.64 244.66,59.64 245.05,59.64 245.43,59.65 245.82,59.64 246.21,59.64 246.59,59.64 246.98,59.65 247.36,59.65 247.75,59.65 248.13,59.65 248.52,59.64 248.91,59.64 249.29,59.64 249.68,59.64 250.06,59.64 250.45,59.64 250.83,59.64 251.22,59.64 251.61,59.64 251.99,59.64 252.38,59.64 252.76,59.64 253.15,59.64 253.53,59.64 253.92,59.64 254.31,59.64 254.69,59.64 255.08,59.64 255.46,59.64 255.85,59.64 256.23,59.64 256.62,59.64 257.01,59.63 257.39,59.63 257.78,59.63 258.16,59.64 258.55,59.64 258.93,59.64 259.32,59.64 259.71,59.63 260.09,59.64 260.48,59.64 260.86,59.63 261.25,59.63 261.63,59.62 262.02,59.6" stroke-dasharray="none" stroke="rgb(31,120,180)" stroke-width="0.75" opacity="1" stroke-opacity="1" fill="none"/>
          </g>
        </g>
        <g id="Fig:densplot_01.panel.1.1.off.vp.2">
          <g id="Fig:densplot_01.border.panel.1.1.1">
            <rect id="Fig:densplot_01.border.panel.1.1.1.1" x="50.8" y="48.19" width="225.2" height="185.81" transform="" stroke="rgb(0,0,0)" stroke-dasharray="none" stroke-width="0.75" opacity="1" fill="none" stroke-opacity="1" fill-opacity="0"/>
          </g>
        </g>
        <g id="Fig:densplot_01..1"/>
      </g>
    </g>
  </g>
</svg>